<?xml version="1.0" encoding="UTF-8" standalone="no"?>
<!DOCTYPE svg PUBLIC "-//W3C//DTD SVG 1.1//EN" "http://www.w3.org/Graphics/SVG/1.1/DTD/svg11.dtd">
<svg width="100%" height="100%" viewBox="0 0 1500 1500" version="1.1" xmlns="http://www.w3.org/2000/svg" xmlns:xlink="http://www.w3.org/1999/xlink" xml:space="preserve" xmlns:serif="http://www.serif.com/" style="fill-rule:evenodd;clip-rule:evenodd;stroke-linecap:round;stroke-linejoin:round;stroke-miterlimit:1.5;">
    <g transform="matrix(3.4128,0,0,3.4128,-102.896,-103.654)">
        <g transform="matrix(-1,0,0,1,483.624,0)">
            <g>
                <path d="M284.879,253.398C284.501,253.748 283.743,254.438 283.482,254.623C281.414,256.089 279.59,257.904 277.681,259.568C273.573,263.149 269.035,266.312 264.812,269.775C260.908,272.976 257.55,276.852 253.991,280.403C251.536,282.852 248.879,285.162 247.141,288.222C246.693,289.009 246.091,289.689 245.851,290.584C245.792,290.805 245.793,291.01 245.768,291.227C245.723,291.462 245.457,292.837 245.413,292.95C245.215,293.45 244.982,293.799 244.8,294.038C243.587,295.637 242.109,295.885 240.996,295.847C240.715,295.837 236.569,295.687 236.569,291.2C236.569,290.873 236.603,290.553 236.67,290.245L236.704,289.947C236.796,289.346 236.846,288.814 237.006,288.217C237.452,286.549 238.346,285.164 239.179,283.698C241.329,279.915 244.488,276.949 247.524,273.921C251.292,270.162 254.873,266.084 259.005,262.695C263.157,259.289 267.625,256.187 271.664,252.665C273.761,250.838 275.789,248.873 278.052,247.25C278.293,247.027 279.65,245.783 280.325,245.39C281.309,244.819 282.265,244.629 283.037,244.629C285.564,244.629 287.615,246.68 287.615,249.207C287.615,251.079 286.49,252.69 284.879,253.398ZM245.768,291.227L245.774,291.193C245.774,291.193 245.76,291.3 245.756,291.329L245.768,291.227ZM245.319,289.315C245.5,289.655 245.726,290.252 245.726,291.2C245.726,290.528 245.581,289.89 245.319,289.315Z" style="fill:white;"/>
                <path d="M300.09,288.03C300.885,287.362 301.911,286.959 303.03,286.959C305.557,286.959 307.609,289.011 307.609,291.537C307.609,292.275 307.448,293.172 306.835,294.096C306.583,294.477 304.742,295.904 304.742,295.904C304.742,295.904 305.027,295.716 305.1,295.66C304.254,296.307 303.187,296.763 302.287,297.394C297.965,300.423 293.23,303.386 288.208,305.098C284.251,306.447 280.201,307.426 276.226,308.632C269.607,310.64 263.191,312.204 256.153,311.035C249.797,309.978 241.93,307.466 238.59,301.298C236.841,298.069 236.569,294.751 236.569,291.136C236.569,288.609 238.62,286.557 241.147,286.557C243.674,286.557 245.726,288.609 245.726,291.136C245.726,293.185 245.65,295.107 246.642,296.938C247.489,298.502 249.027,299.439 250.673,300.153C252.927,301.129 255.448,301.635 257.654,302.002C263.243,302.931 268.311,301.465 273.568,299.87C277.444,298.694 281.395,297.747 285.254,296.431C289.468,294.995 293.404,292.438 297.032,289.895C297.828,289.338 298.787,288.96 299.536,288.388C299.609,288.332 299.875,288.164 300.09,288.03Z" style="fill:white;"/>
                <g transform="matrix(-0.293015,0,0,0.293015,453.474,30.372)">
                    <path d="M513.435,891.305L487.652,844.891L575.77,744.675" style="fill:none;stroke:white;stroke-width:25px;"/>
                </g>
                <g transform="matrix(-0.293015,0,0,0.293015,476.634,37.5696)">
                    <ellipse cx="486.182" cy="702.393" rx="5.845" ry="12.523" style="fill:none;stroke:white;stroke-width:25px;"/>
                </g>
                <path d="M303.403,291.497C303.403,291.497 324.209,297.914 312.255,356.074C300.301,414.235 279.088,386.565 280.348,436.812" style="fill:none;stroke:white;stroke-width:9.16px;"/>
                <path d="M283.532,248.448C283.532,248.448 296.232,191.602 335.69,197.972C375.148,204.342 385.236,243.608 378.119,285.896C371.002,328.184 371.833,372.836 389.521,371.156" style="fill:none;stroke:white;stroke-width:9.16px;"/>
            </g>
        </g>
        <g>
            <g transform="matrix(0.8821,0,0,0.640326,33.5406,47.89)">
                <path d="M394.606,200.746C394.606,150.279 354.721,109.306 305.595,109.306C256.469,109.306 216.585,150.279 216.585,200.746C216.585,231.384 231.523,259.987 256.372,276.931L255.571,326.295L288.693,290.521C294.263,291.628 299.922,292.185 305.595,292.185C354.721,292.185 394.606,251.212 394.606,200.746Z" style="fill:none;stroke:white;stroke-width:11.88px;"/>
            </g>
            <g transform="matrix(1,0,0,1,-12.6075,0)">
                <path d="M297.585,212.568L297.585,142.973L344.095,165.186L297.585,183.49" style="fill:none;stroke:white;stroke-width:4.88px;"/>
            </g>
            <g transform="matrix(0.589702,0,0,0.589702,73.3721,76.726)">
                <path d="M297.585,212.568L297.585,142.973L344.095,165.186L297.585,183.49" style="fill:none;stroke:white;stroke-width:8.28px;"/>
            </g>
            <g transform="matrix(0.589702,0,0,0.589702,165.317,76.726)">
                <path d="M297.585,212.568L297.585,142.973L344.095,165.186L297.585,183.49" style="fill:none;stroke:white;stroke-width:8.28px;"/>
            </g>
        </g>
    </g>
</svg>
