<svg id="Layer_1" data-name="Layer 1" xmlns="http://www.w3.org/2000/svg" viewBox="0 0 729.67 194.01"><defs><style>.cls-1{fill:#e30613;}.cls-2{fill:#2800b4;}.cls-3{fill:#00b419;}.cls-4{fill:#e9ba00;}.cls-17,.cls-5{isolation:isolate;}.cls-5{font-size:25.8px;fill:#828282;font-family:ArialMT, Arial;}.cls-6{opacity:0.5;}.cls-7{fill:#fcc21b;}.cls-8{fill:#2f2f2f;}.cls-9{fill:#ed6c30;}.cls-10{fill:#ed4930;}.cls-10,.cls-11{stroke:#fff;stroke-miterlimit:10;stroke-width:4px;}.cls-11{fill:#78a3ad;}.cls-12{fill:#bfa700;}.cls-13{fill:#5f5600;}.cls-14{fill:#b4b4b4;}.cls-15{opacity:0.75;}.cls-16{fill:#747474;}.cls-18{fill:#fff;}</style></defs><g id="Base"><rect class="cls-1" x="4.5" y="1.42" width="193.23" height="64.41" rx="5.86"/><rect class="cls-2" x="4.23" y="65.19" width="193.23" height="64.41" rx="5.86"/><rect class="cls-3" x="4.23" y="129.59" width="193.23" height="64.41" rx="5.86"/></g><g id="Badges"><path class="cls-4" d="M23.75,51.08c0,4.3-2.92,7.81-6.48,7.81s-6.48-3.48-6.48-7.81V14.89c0-4.3,2.92-7.81,6.48-7.81s6.48,3.51,6.48,7.81Z" transform="translate(0 0)"/><text class="cls-5" transform="translate(8.38 8.45) rotate(90) scale(2.69 1)">∞</text><path class="cls-4" d="M24,114.74c0,4.29-2.92,7.8-6.48,7.8S11,119,11,114.74V78.54c0-4.29,2.91-7.8,6.47-7.8S24,74.25,24,78.54Z" transform="translate(0 0)"/><text class="cls-5" transform="translate(8.59 72.11) rotate(90) scale(2.69 1)">∞</text><path class="cls-4" d="M24.17,178.41c0,4.29-2.92,7.8-6.48,7.8s-6.47-3.51-6.47-7.8v-36.2c0-4.29,2.91-7.81,6.47-7.81s6.48,3.52,6.48,7.81Z" transform="translate(0 0)"/><text class="cls-5" transform="translate(8.8 135.77) rotate(90) scale(2.69 1)">∞</text></g><g id="Shadows" class="cls-6"><path d="M4.22,54.41H197.41v4.9a5.86,5.86,0,0,1-5.86,5.86H10.08a5.86,5.86,0,0,1-5.86-5.86h0Z" transform="translate(0 0)"/><path d="M4.22,118.84H197.41v4.9a5.86,5.86,0,0,1-5.86,5.86H10.08a5.88,5.88,0,0,1-5.86-5.86h0Z" transform="translate(0 0)"/><path d="M4.22,183.25H197.41v4.9a5.86,5.86,0,0,1-5.86,5.86H10.08a5.88,5.88,0,0,1-5.86-5.86Z" transform="translate(0 0)"/></g><g id="Blob"><g id="Blob-2"><path id="Blob-3" class="cls-7" d="M143,15.7c-.63-1.4,5.38-1.86,6.53-2,3-.25,5.08-1.87,5.45-3.55a8.88,8.88,0,0,0-.23-2.24,8.09,8.09,0,0,0-2.58-3.5c-1.62-1.42-3.56-1.23-5.68-1a12.9,12.9,0,0,0-4.1,1c-1.94,1-3.35,2.77-4.94,4.22S134,10.81,132,11.86a80.87,80.87,0,0,0-8.3,5.09,68.41,68.41,0,0,0-5.5,4.3c-5.47,4.72-10.78,9.65-15.56,18h0c-3.81,3.88-.62,15.47,7.5,26.57h0A59.77,59.77,0,0,0,117.27,74c5.86,5.54,11.66,8.42,15.23,7.26a5,5,0,0,0,1.29-.51c2.5-1.48.78-5.41,6.17-7.28C153,68.89,160.2,59.63,158.53,49.31c-2.5-15.42-14.59-22.86-28.74-22.25a33.3,33.3,0,0,0-3.6.4h0c-.61.08-.75-.05-.73-.22,1.23-1,2.46-1.94,3.74-2.85,2.27-1.63,4.6-3.15,7-4.6,1.82-1.1,5.34-4.07,7.41-3.24" transform="translate(0 0)"/></g><path id="Eye" class="cls-8" d="M139.24,32.5c2.3-.22,4.31,1.13,4.49,3s-1.52,3.62-3.81,3.84-4.29-1.13-4.49-3S137,32.73,139.24,32.5Z" transform="translate(0 0)"/><path id="Mouth" class="cls-9" d="M126.83,56a17.77,17.77,0,0,1-2.42-3.29A12.19,12.19,0,0,1,123,43.3c1-3.25,5.29-6.66,8.63-5a6,6,0,0,1,2.66,2.91c.46,1.55-.33,3.27.26,4.82.78,2,2.68,3.31,3.82,5.13a5.49,5.49,0,0,1,.17,5.68C135.49,61.19,129.6,58.88,126.83,56Z" transform="translate(0 0)"/><path id="Eye-2" class="cls-8" d="M146.18,54.07c-2.28.22-4.29-1.13-4.49-3s1.51-3.61,3.8-3.83,4.31,1.12,4.49,3S148.47,53.84,146.18,54.07Z" transform="translate(0 0)"/><g id="Flag"><path class="cls-10" d="M182.72,52.41a10.66,10.66,0,0,1,1,1.65c.24.41.43.33.46.86s-.67,1.27-1,1.71A12.81,12.81,0,0,1,176.92,61a21.14,21.14,0,0,1-4,.94c-3,.43-6.29,0-9.3.45-.75.1-1.53.35-2.26.52a9.66,9.66,0,0,0-5.86,4.31c-.6.93-1.09,2.66-2.3,2.94-1.38.33-2.87-2.32-3.32-3.54a19.68,19.68,0,0,1,.21-13.18c.08-.24.18-.48.27-.71a15.15,15.15,0,0,1,4.51-6.29c2.11-1.68,5-2.47,7-4.27,2.6-2.37,5.23-5.39,5-9.61.36.39.84.63,1.22,1,.84.86,1.45,2.07,2.21,3,1,1.27,1.92,2.61,3,3.83,1.75,2,3.13,4.33,4.93,6.33,1.51,1.68,2.85,3.54,4.22,5.35A3.18,3.18,0,0,0,182.72,52.41Z" transform="translate(0 0)"/><path class="cls-11" d="M144.46,2.24c.72-.55,2-.11,2.82,1L182,48.94c.83,1.09.91,2.43.18,3s-2,.12-2.82-1L144.64,5.23C143.81,4.13,143.73,2.8,144.46,2.24Z" transform="translate(0 0)"/></g><g id="Fingers"><path id="Finger" class="cls-7" d="M156.41,11.27l-.58.64a2.17,2.17,0,0,1-3.06.12h0l-4.84-5.19a3.29,3.29,0,0,1-.2-3.87l-.44.38a2.32,2.32,0,0,1,.44-.39,3.36,3.36,0,0,1,1.21-.49,4.08,4.08,0,0,1,3.24,1,3.19,3.19,0,0,1,.26.26l3.78,4.46a2.18,2.18,0,0,1,.19,3.08Z" transform="translate(0 0)"/><path id="Finger-2" class="cls-7" d="M152.78,15l-.13.85a2.18,2.18,0,0,1-2.51,1.77l-7.6-1.19a2.18,2.18,0,0,1-1.83-2.47l.14-.84a3.41,3.41,0,0,1,.87-1.4,10.61,10.61,0,0,1,3.51-2.29c1.92.57,3.2,1.39,5.72,3.07C152,13.18,153,13.81,152.78,15Z" transform="translate(0 0)"/></g></g><g id="Band"><rect class="cls-12" x="74.51" y="0.81" width="52.67" height="193.19" rx="5.86"/><path class="cls-4" d="M127.17,188.13a5.88,5.88,0,0,1-5.86,5.86H80.41a5.88,5.88,0,0,1-5.86-5.86V17.19a7.82,7.82,0,0,1,7.76-7.78h37a7.81,7.81,0,0,1,7.81,7.81Z" transform="translate(0 0)"/><circle class="cls-13" cx="100.84" cy="71.65" r="5.79"/><path class="cls-14" d="M127.12,65.19v52.57H74.55V65.19H71.68a3.93,3.93,0,0,0-3.91,3.9v51.22a3.92,3.92,0,0,0,3.91,3.91H130a3.91,3.91,0,0,0,3.9-3.91V69.09a3.67,3.67,0,0,0-3.39-3.9Z" transform="translate(0 0)"/><g class="cls-15"><path class="cls-16" d="M100.61,93h0a3.21,3.21,0,0,1,3.2,3.21V117a3.2,3.2,0,0,1-3.2,3.2h0a3.2,3.2,0,0,1-3.2-3.2V96.16A3.21,3.21,0,0,1,100.61,93Z" transform="translate(0 0)"/></g><path class="cls-14" d="M100.61,91.59h0a3.2,3.2,0,0,1,3.2,3.2v20.85a3.2,3.2,0,0,1-3.2,3.2h0a3.2,3.2,0,0,1-3.2-3.2V94.79A3.2,3.2,0,0,1,100.61,91.59Z" transform="translate(0 0)"/></g><g class="cls-17"><path class="cls-18" d="M288.09,147.76a7,7,0,0,1-5-2.24q-23.1-22.82-51.37-30.71l.56,13.68.35,13.75a7.11,7.11,0,0,1-2,5.13,7.09,7.09,0,0,1-10,0,7.11,7.11,0,0,1-2-5.13q0-5.51-.52-16.44t-.52-16.43a191.06,191.06,0,0,1,1.39-19.13q1.39-12.7,1.4-19.06,0-3.56-.66-10.54c-.45-4.65-.67-8.17-.67-10.54a11.38,11.38,0,0,1,2.24-7,7.73,7.73,0,0,1,7.33-3.35l16.82,1.33a46.52,46.52,0,0,1,16.12,4.67q28.28,15,28.28,36.65,0,10.62-9.64,18.78a52.5,52.5,0,0,1-19.33,10q21.71,11.66,32.46,24.57a7.46,7.46,0,0,1,1.81,4.75,7,7,0,0,1-2.13,5.09A6.76,6.76,0,0,1,288.09,147.76ZM243.62,55.48l-10.33-.84.7,8.44c.33,3.45.49,6.26.49,8.45a130.66,130.66,0,0,1-.91,13.89l-1.46,13.89c.65,0,1.66,0,3,.07s2.41.07,3.11.07q17.81,0,26.67-4.74a30.77,30.77,0,0,0,7.25-5.66q3.7-3.9,3.7-6.63,0-9.7-11-18.08A42.29,42.29,0,0,0,243.62,55.48Z" transform="translate(0 0)"/><path class="cls-18" d="M363.55,151.6c-.88,0-2.49-1-4.82-3.07a31.23,31.23,0,0,1-4.67-5.1,89.23,89.23,0,0,1-11.8,5.48,26.1,26.1,0,0,1-8.52,1.85q-16.33,0-23.8-9.21-7.05-8.66-7.05-26.53a40,40,0,0,1,11.62-28.9q11.63-12,27.75-12a35.94,35.94,0,0,1,13.61,3.14q9.5,3.91,9.49,9.43A4.72,4.72,0,0,1,364,90a50,50,0,0,0-1.08,8.72q-.39,6.07-.46,15.57A57.12,57.12,0,0,0,363.62,128a103.18,103.18,0,0,0,4.4,12.29c.32.84.86,2.07,1.6,3.7l.42,1.19a6,6,0,0,1-2,4.6A6.49,6.49,0,0,1,363.55,151.6ZM349,103.08a62,62,0,0,1,.38-6.52c.26-2.35.64-4.85,1.16-7.51a34.68,34.68,0,0,0-4.44-2,9.75,9.75,0,0,0-3-.63q-10.83,0-18.68,8.83a29.74,29.74,0,0,0-7.85,20.35q0,11.44,4.05,17.17t12.15,5.72a24.27,24.27,0,0,0,11.37-2.44,41.26,41.26,0,0,0,7.05-5.3Q349,112.29,349,103.08Z" transform="translate(0 0)"/><path class="cls-18" d="M451.08,147.76a7,7,0,0,1-4.95-2.24Q423,122.71,394.75,114.81l.56,13.68.35,13.75a7.07,7.07,0,0,1-2,5.13,7.07,7.07,0,0,1-10,0,7.07,7.07,0,0,1-2-5.13q0-5.51-.53-16.44t-.52-16.43a191.75,191.75,0,0,1,1.4-19.13,191,191,0,0,0,1.39-19.06q0-3.56-.66-10.54c-.44-4.65-.66-8.17-.66-10.54a11.37,11.37,0,0,1,2.23-7,7.74,7.74,0,0,1,7.33-3.35L408.5,41.1a46.57,46.57,0,0,1,16.13,4.67q28.28,15,28.27,36.65,0,10.62-9.63,18.78a52.63,52.63,0,0,1-19.34,10q21.7,11.66,32.46,24.57a7.4,7.4,0,0,1,1.81,4.75,7,7,0,0,1-2.12,5.09A6.78,6.78,0,0,1,451.08,147.76ZM406.62,55.48l-10.33-.84.7,8.44c.32,3.45.48,6.26.48,8.45a133,133,0,0,1-.9,13.89L395.1,99.31c.65,0,1.66,0,3,.07s2.41.07,3.1.07q17.81,0,26.67-4.74a31,31,0,0,0,7.26-5.66c2.46-2.6,3.7-4.81,3.7-6.63q0-9.7-11-18.08A42.26,42.26,0,0,0,406.62,55.48Z" transform="translate(0 0)"/><path class="cls-18" d="M539.39,68.67c-3,0-5.22-1.75-6.7-5.24-1.31-3-2.52-4.79-3.63-5.44s-3.4-.77-7.26-.77q-10.12,0-22.48,15.5-16.76,20.81-16.75,39.44a22.47,22.47,0,0,0,5.79,15.49,18.44,18.44,0,0,0,14.31,6.71,31.69,31.69,0,0,0,14.45-3.7,109.81,109.81,0,0,0,12.42-8.24c2.66-2,4.66-2.93,6-2.93a6.43,6.43,0,0,1,5,2.27,7.42,7.42,0,0,1,2,5.06,7.23,7.23,0,0,1-2.65,5.51q-18.44,16.33-37.28,16.34-14.44,0-24.43-11.1a36.85,36.85,0,0,1-9.64-25.41q0-23.67,19.83-48.52Q505,42.91,521.8,42.91a53.81,53.81,0,0,1,6.14.32,23.21,23.21,0,0,1,4.82,1,7.37,7.37,0,0,1,6.35-3.56q4.82,0,6.07,6.35a73.48,73.48,0,0,1,1.12,13.89,8.45,8.45,0,0,1-1.54,5A6.16,6.16,0,0,1,539.39,68.67Z" transform="translate(0 0)"/><path class="cls-18" d="M643.54,58.83q-5.17,0-15.92-.84-10.47-.77-15.91-.7h-5q.21,9.63,1.88,31.27,1.54,20.18,1.54,31.35c0,1.63.16,4.09.49,7.4s.49,5.79.49,7.46a19.88,19.88,0,0,1-1.54,8.17c-1.3,3.07-3.33,4.61-6.07,4.61a7.42,7.42,0,0,1-5-2,6.35,6.35,0,0,1-2.23-5,20,20,0,0,1,.35-3.14,21.55,21.55,0,0,0,.35-3.14c0-2.28-.16-5.7-.46-10.27s-.45-8-.45-10.33q0-10-1.61-28.06-1.66-19.55-1.88-28.06l-6.35.07q-15.3,0-24-2.23-5.65-1.47-5.65-6.91a7.58,7.58,0,0,1,1.81-5,6.2,6.2,0,0,1,5.38-2.23q2.44.13,11.17,1.25a98.82,98.82,0,0,0,11.31.84q4.18,0,12.7-.17t12.7-.18q5.39,0,16,.77t15.95.77a6.73,6.73,0,0,1,5,2.06,7,7,0,0,1,2,5.13,6.94,6.94,0,0,1-2,5.06A6.76,6.76,0,0,1,643.54,58.83Z" transform="translate(0 0)"/><path class="cls-18" d="M722.83,55.27a7.21,7.21,0,0,1-2.65-.56q-8.65-3.21-22.89-3.21a103.19,103.19,0,0,0-10.79.66q-6.18.66-13.86,2.06l-.14,30.16q13.49-3.57,20.25-3.56A204.93,204.93,0,0,1,715,82.07q6.56.71,6.56,7.12a7.1,7.1,0,0,1-2,5.2,6.73,6.73,0,0,1-5,2.06q-3.63,0-10.89-.63c-4.84-.42-8.47-.62-10.89-.62q-4.75,0-20.52,4l-.63,48a7,7,0,0,1-2,5.06,6.53,6.53,0,0,1-4.95,2.06,6.65,6.65,0,0,1-5-2.06,7,7,0,0,1-2-5.06q0-13.76.52-41.29t.52-41.29q0-3.07-.1-9.25t-.11-9.25A7.33,7.33,0,0,1,660.46,41a6.46,6.46,0,0,1,5-2.1,7,7,0,0,1,4.12,1.26q8.65-1.53,15.57-2.27a116.38,116.38,0,0,1,12.15-.73,85.7,85.7,0,0,1,18.35,2.3q14,3.21,14,8.38a7.47,7.47,0,0,1-1.81,5A6.29,6.29,0,0,1,722.83,55.27Z" transform="translate(0 0)"/></g></svg>