<svg id="Layer_1" data-name="Layer 1" xmlns="http://www.w3.org/2000/svg" viewBox="0 0 732.4 194"><defs><style>.cls-1{fill:#e30613;}.cls-2{fill:#2800b4;}.cls-3{fill:#00b419;}.cls-4{fill:#e9ba00;}.cls-5{isolation:isolate;font-size:25.8px;fill:#828282;font-family:ArialMT, Arial;}.cls-6{opacity:0.5;}.cls-7{fill:#fcc21b;}.cls-8{fill:#2f2f2f;}.cls-9{fill:#ed6c30;}.cls-10{fill:#ed4930;}.cls-10,.cls-11{stroke:#fff;stroke-miterlimit:10;stroke-width:4px;}.cls-11{fill:#78a3ad;}.cls-12{fill:#bfa700;}.cls-13{fill:#5f5600;}.cls-14{fill:#b4b4b4;}.cls-15{opacity:0.75;}.cls-16{fill:#747474;}.cls-17{font-size:142.96px;fill:#fff;font-family:ComicSansMS, Comic Sans MS;}</style></defs><g id="Base"><rect class="cls-1" x="4.5" y="1.42" width="193.23" height="64.41" rx="5.86"/><rect class="cls-2" x="4.23" y="65.19" width="193.23" height="64.41" rx="5.86"/><rect class="cls-3" x="4.23" y="129.59" width="193.23" height="64.41" rx="5.86"/></g><g id="Badges"><path class="cls-4" d="M44.34,78.67c0,4.3-2.92,7.81-6.48,7.81S31.38,83,31.38,78.67V42.48c0-4.3,2.92-7.81,6.48-7.81s6.48,3.51,6.48,7.81Z" transform="translate(-20.59 -27.59)"/><text class="cls-5" transform="translate(8.38 8.45) rotate(90) scale(2.69 1)">∞</text><path class="cls-4" d="M44.55,142.33c0,4.29-2.92,7.8-6.48,7.8s-6.47-3.51-6.47-7.8v-36.2c0-4.29,2.91-7.8,6.47-7.8s6.48,3.51,6.48,7.8Z" transform="translate(-20.59 -27.59)"/><text class="cls-5" transform="translate(8.59 72.11) rotate(90) scale(2.69 1)">∞</text><path class="cls-4" d="M44.76,206c0,4.29-2.92,7.8-6.48,7.8s-6.47-3.51-6.47-7.8v-36.2c0-4.29,2.91-7.81,6.47-7.81s6.48,3.52,6.48,7.81Z" transform="translate(-20.59 -27.59)"/><text class="cls-5" transform="translate(8.8 135.77) rotate(90) scale(2.69 1)">∞</text></g><g id="Shadows" class="cls-6"><path d="M24.81,82H218v4.9a5.86,5.86,0,0,1-5.86,5.86H30.67a5.86,5.86,0,0,1-5.86-5.86h0V82Z" transform="translate(-20.59 -27.59)"/><path d="M24.81,146.43H218v4.9a5.86,5.86,0,0,1-5.86,5.86H30.67a5.87,5.87,0,0,1-5.86-5.86h0v-4.9Z" transform="translate(-20.59 -27.59)"/><path d="M24.81,210.84H218v4.9a5.86,5.86,0,0,1-5.86,5.86H30.67a5.87,5.87,0,0,1-5.86-5.86v-4.9Z" transform="translate(-20.59 -27.59)"/></g><g id="Blob"><g id="Blob-2"><path id="Blob-3" class="cls-7" d="M163.62,43.29c-.63-1.4,5.38-1.86,6.53-2,3-.25,5.08-1.87,5.45-3.55a8.93,8.93,0,0,0-.23-2.24A8.05,8.05,0,0,0,172.79,32c-1.62-1.42-3.56-1.23-5.68-1a12.89,12.89,0,0,0-4.1,1c-1.94,1.05-3.35,2.77-4.94,4.22s-3.47,2.18-5.46,3.23a80.87,80.87,0,0,0-8.3,5.09q-2.85,2-5.5,4.3c-5.47,4.72-10.78,9.65-15.56,18h0c-3.81,3.88-.62,15.47,7.5,26.57l0,0,0,0a59.17,59.17,0,0,0,7.11,8.13c5.86,5.54,11.66,8.42,15.23,7.26a5.1,5.1,0,0,0,1.29-.51c2.5-1.48.78-5.41,6.17-7.28,13.07-4.53,20.24-13.79,18.57-24.11-2.5-15.42-14.59-22.86-28.74-22.25a33.3,33.3,0,0,0-3.6.4v0c-.61.08-.75-.05-.73-.22,1.23-1,2.46-1.94,3.74-2.85,2.27-1.63,4.6-3.15,7-4.6,1.82-1.1,5.34-4.07,7.41-3.24" transform="translate(-20.59 -27.59)"/></g><path id="Eye" class="cls-8" d="M159.83,60.09c2.3-.22,4.31,1.13,4.49,3s-1.52,3.62-3.81,3.84-4.29-1.13-4.49-3S157.54,60.32,159.83,60.09Z" transform="translate(-20.59 -27.59)"/><path id="Mouth" class="cls-9" d="M147.42,83.57A17.6,17.6,0,0,1,145,80.28a12.17,12.17,0,0,1-1.43-9.39c1-3.25,5.29-6.66,8.63-5a6,6,0,0,1,2.66,2.91c.46,1.55-.33,3.27.26,4.82.78,2,2.68,3.31,3.82,5.13,1,1.51,1.28,4.09.17,5.68C156.08,88.78,150.19,86.47,147.42,83.57Z" transform="translate(-20.59 -27.59)"/><path id="Eye-2" class="cls-8" d="M166.77,81.66c-2.28.22-4.29-1.13-4.49-3s1.51-3.61,3.8-3.83,4.31,1.12,4.49,3S169.06,81.43,166.77,81.66Z" transform="translate(-20.59 -27.59)"/><g id="Flag"><path class="cls-10" d="M203.31,80a11,11,0,0,1,1,1.65c.24.41.43.33.46.86s-.67,1.27-1,1.71a12.87,12.87,0,0,1-6.26,4.34,20.74,20.74,0,0,1-4,.94c-3,.43-6.29,0-9.3.45-.75.1-1.53.35-2.26.52a9.66,9.66,0,0,0-5.86,4.31c-.6.93-1.09,2.66-2.3,2.94-1.38.33-2.87-2.32-3.32-3.54A19.66,19.66,0,0,1,170.68,81c.08-.24.18-.48.27-.71A15.13,15.13,0,0,1,175.46,74c2.11-1.68,5-2.47,7-4.27,2.6-2.37,5.23-5.39,5-9.61.36.39.84.63,1.22,1,.84.86,1.45,2.07,2.21,3,1,1.27,1.92,2.61,3,3.83,1.75,2,3.13,4.33,4.93,6.33,1.51,1.68,2.85,3.54,4.22,5.35A2.6,2.6,0,0,0,203.31,80Z" transform="translate(-20.59 -27.59)"/><path class="cls-11" d="M165.05,29.83c.72-.55,2-.11,2.82,1l34.67,45.7c.83,1.09.91,2.43.18,3s-2,.12-2.82-1L165.23,32.82C164.4,31.72,164.32,30.39,165.05,29.83Z" transform="translate(-20.59 -27.59)"/></g><g id="Fingers"><path id="Finger" class="cls-7" d="M177,38.86l-.58.64a2.17,2.17,0,0,1-3.06.12h0l-4.84-5.19a3.28,3.28,0,0,1-.2-3.87l-.44.38a2.32,2.32,0,0,1,.44-.39,3.36,3.36,0,0,1,1.21-.49,4.09,4.09,0,0,1,3.24,1,3.19,3.19,0,0,1,.26.26l3.78,4.46A2.18,2.18,0,0,1,177,38.86Z" transform="translate(-20.59 -27.59)"/><path id="Finger-2" class="cls-7" d="M173.37,42.57l-.13.85a2.18,2.18,0,0,1-2.51,1.77L163.13,44a2.18,2.18,0,0,1-1.83-2.47l.14-.84a3.41,3.41,0,0,1,.87-1.4A10.59,10.59,0,0,1,165.82,37c1.92.57,3.2,1.39,5.72,3.07C172.55,40.77,173.56,41.4,173.37,42.57Z" transform="translate(-20.59 -27.59)"/></g></g><g id="Band"><rect class="cls-12" x="74.51" y="0.81" width="52.67" height="193.19" rx="5.86"/><path class="cls-4" d="M147.76,215.72a5.88,5.88,0,0,1-5.86,5.86H101a5.88,5.88,0,0,1-5.86-5.86V44.78A7.81,7.81,0,0,1,102.9,37h37a7.81,7.81,0,0,1,7.81,7.81Z" transform="translate(-20.59 -27.59)"/><circle class="cls-13" cx="100.84" cy="71.65" r="5.79"/><path class="cls-14" d="M147.71,92.78v52.57H95.14V92.78H92.27a3.92,3.92,0,0,0-3.91,3.9V147.9a3.92,3.92,0,0,0,3.91,3.91h58.32a3.91,3.91,0,0,0,3.9-3.91V96.68a3.68,3.68,0,0,0-3.39-3.9Z" transform="translate(-20.59 -27.59)"/><g class="cls-15"><path class="cls-16" d="M121.2,120.54h0a3.21,3.21,0,0,1,3.2,3.21v20.84a3.2,3.2,0,0,1-3.2,3.2h0a3.2,3.2,0,0,1-3.2-3.2V123.75A3.21,3.21,0,0,1,121.2,120.54Z" transform="translate(-20.59 -27.59)"/></g><path class="cls-14" d="M121.2,119.18h0a3.2,3.2,0,0,1,3.2,3.2v20.85a3.2,3.2,0,0,1-3.2,3.2h0a3.2,3.2,0,0,1-3.2-3.2V122.38A3.2,3.2,0,0,1,121.2,119.18Z" transform="translate(-20.59 -27.59)"/></g><text class="cls-17" transform="translate(209.49 146.99)">RaRCTF</text></svg>