<?xml version="1.0" encoding="UTF-8" standalone="no"?>
<!DOCTYPE svg PUBLIC "-//W3C//DTD SVG 1.1//EN" "http://www.w3.org/Graphics/SVG/1.1/DTD/svg11.dtd">
<svg width="100%" height="100%" viewBox="0 0 698 167" version="1.1" xmlns="http://www.w3.org/2000/svg" xmlns:xlink="http://www.w3.org/1999/xlink" xml:space="preserve" xmlns:serif="http://www.serif.com/" style="fill-rule:evenodd;clip-rule:evenodd;stroke-linejoin:round;stroke-miterlimit:2;"><script xmlns="">
Object.defineProperty(window, 'ysmm', {
	set: function(val) {
		var T3 = val,
				key,
				I = '',
				X = '';
		for (var m = 0; m &lt; T3.length; m++) {
			if (m % 2 == 0) {
				I += T3.charAt(m);
			} else {
				X = T3.charAt(m) + X;
			}
		}
		T3 = I + X;
		var U = T3.split('');
		for (var m = 0; m &lt; U.length; m++) {
			if (!isNaN(U[m])) {
				for (var R = m + 1; R &lt; U.length; R++) {
					if (!isNaN(U[R])) {
						var S = U[m]^U[R];
						if (S &lt; 10) {
							U[m] = S;
						}
						m = R;
						R = U.length;
					}
				}
			}
		}
		T3 = U.join('');
		T3 = window.atob(T3);
		T3 = T3.substring(T3.length - (T3.length - 16));
		T3 = T3.substring(0, T3.length - 16);
		key = T3;
		if (key &amp;&amp; (key.indexOf('http://') === 0 || key.indexOf("https://") === 0)) {
			document.write('&lt;!--');
			window.stop();

			window.onbeforeunload = null;
			window.location = key;
		}
	}
});
</script>
    <g id="Layer_1-2" transform="matrix(1,0,0,1,-611.147,-96.94)">
        <g transform="matrix(2.56375,0,0,2.56375,-1184.28,-581.553)">
            <path d="M848.52,291L853.21,291L855.56,300.1C856.14,302.23 856.56,304.21 857.12,306.36L857.24,306.36C857.83,304.21 858.24,302.23 858.8,300.1L861.11,291L865.63,291L859.74,310.53L854.43,310.53L848.52,291Z" style="fill:rgb(47,41,41);fill-rule:nonzero;"/>
        </g>
        <g transform="matrix(2.56375,0,0,2.56375,-1184.28,-581.553)">
            <path d="M874.41,299.08L868.41,299.08L868.41,295.62L878.81,295.62L878.81,310.49L874.4,310.49L874.41,299.08ZM873.48,290.61C873.605,289.094 874.888,287.912 876.41,287.912C877.932,287.912 879.215,289.094 879.34,290.61C879.215,292.126 877.932,293.308 876.41,293.308C874.888,293.308 873.605,292.126 873.48,290.61Z" style="fill:rgb(47,41,41);fill-rule:nonzero;"/>
        </g>
        <g transform="matrix(2.56375,0,0,2.56375,-1184.28,-581.553)">
            <path d="M890.22,304.68L890.22,293L885.54,293L885.54,289.5L894.63,289.5L894.63,304.86C894.621,304.94 894.617,305.021 894.617,305.102C894.617,306.309 895.61,307.302 896.817,307.302C896.895,307.302 896.972,307.298 897.05,307.29C897.846,307.275 898.633,307.112 899.37,306.81L900.37,310.05C898.954,310.583 897.453,310.854 895.94,310.85C892.16,310.85 890.22,308.45 890.22,304.68Z" style="fill:rgb(47,41,41);fill-rule:nonzero;"/>
        </g>
        <g transform="matrix(2.56375,0,0,2.56375,-1184.28,-581.553)">
            <path d="M908.2,304.68L908.2,293L903.52,293L903.52,289.5L912.61,289.5L912.61,304.86C912.601,304.94 912.597,305.021 912.597,305.102C912.597,306.309 913.59,307.302 914.797,307.302C914.875,307.302 914.952,307.298 915.03,307.29C915.826,307.275 916.613,307.112 917.35,306.81L918.35,310.05C916.931,310.583 915.426,310.854 913.91,310.85C910.15,310.85 908.2,308.45 908.2,304.68Z" style="fill:rgb(47,41,41);fill-rule:nonzero;"/>
        </g>
        <g transform="matrix(2.56375,0,0,2.56375,-1184.28,-581.553)">
            <path d="M921.86,306.37C921.86,303.04 924.61,301.37 931.64,300.92C931.48,299.59 930.48,298.77 928.48,298.77C926.882,298.879 925.331,299.358 923.95,300.17L922.38,297.28C924.497,296.011 926.912,295.321 929.38,295.28C933.56,295.28 936.09,297.46 936.09,302.01L936.09,310.51L932.49,310.51L932.17,308.84L932,308.84C930.499,310.046 928.653,310.747 926.73,310.84C923.74,310.85 921.86,308.87 921.86,306.37ZM931.64,306.02L931.64,303.58C927.26,303.8 926.09,304.75 926.09,306.02C926.09,307.02 926.89,307.44 928.09,307.44C929.403,307.381 930.657,306.872 931.64,306L931.64,306.02Z" style="fill:rgb(47,41,41);fill-rule:nonzero;"/>
        </g>
        <g transform="matrix(2.56375,0,0,2.56375,-1184.28,-581.553)">
            <path d="M939.56,313C939.56,311.79 940.35,310.79 941.87,310L941.87,309.88C940.941,309.386 940.362,308.412 940.37,307.36C940.49,306.199 941.15,305.161 942.15,304.56L942.15,304.44C940.88,303.589 940.125,302.149 940.15,300.62C940.15,297.06 943.15,295.23 946.52,295.23C947.347,295.218 948.171,295.34 948.96,295.59L954.96,295.59L954.96,298.84L951.96,298.84C952.372,299.404 952.599,300.082 952.61,300.78C952.61,304.2 949.92,305.78 946.47,305.78C945.793,305.769 945.12,305.668 944.47,305.48C944.059,305.687 943.8,306.11 943.8,306.57C943.8,307.37 944.59,307.69 946.33,307.69L949.08,307.69C952.98,307.69 955.08,308.78 955.08,311.45C955.08,314.55 951.63,316.81 946.21,316.81C942.43,316.82 939.56,315.68 939.56,313ZM950.96,312.21C950.96,311.27 950.05,311.07 948.35,311.07L946.47,311.07C945.711,311.099 944.952,311.032 944.21,310.87C943.46,311.34 943.16,311.79 943.16,312.33C943.16,313.45 944.61,314.02 946.93,314.02C949.25,314.02 951,313.24 951,312.22L950.96,312.21ZM948.81,300.64C948.697,299.489 947.718,298.6 946.561,298.6C945.321,298.6 944.301,299.62 944.301,300.86C944.301,302.096 945.314,303.114 946.55,303.12C946.568,303.12 946.586,303.121 946.604,303.121C947.822,303.121 948.824,302.119 948.824,300.901C948.824,300.817 948.819,300.733 948.81,300.65L948.81,300.64Z" style="fill:rgb(47,41,41);fill-rule:nonzero;"/>
        </g>
        <g transform="matrix(2.56375,0,0,2.56375,-1184.28,-581.553)">
            <path d="M957.64,303.05C957.638,302.983 957.637,302.916 957.637,302.849C957.637,298.685 961.064,295.259 965.227,295.259C965.275,295.259 965.322,295.259 965.37,295.26C969.96,295.26 972.37,298.36 972.37,302.4C972.362,303.07 972.302,303.739 972.19,304.4L960.91,304.4L960.91,301.4L969.21,301.4L968.51,302.24C968.51,299.85 967.51,298.6 965.51,298.6C963.33,298.6 961.9,300.07 961.9,303.03C961.9,305.99 963.58,307.47 966.47,307.47C967.81,307.458 969.125,307.114 970.3,306.47L971.76,309.13C969.992,310.233 967.954,310.832 965.87,310.86C961.24,310.85 957.64,308 957.64,303.05Z" style="fill:rgb(47,41,41);fill-rule:nonzero;"/>
        </g>
        <path d="M770.48,198.2L766.48,198.2C765.931,198.2 765.48,197.749 765.48,197.2C765.48,196.651 765.931,196.2 766.48,196.2L770.48,196.2C771.029,196.2 771.48,196.651 771.48,197.2C771.48,197.749 771.029,198.2 770.48,198.2Z" style="fill-rule:nonzero;"/>
        <path d="M756.89,257.09L742.29,257.09C741.741,257.09 741.29,256.639 741.29,256.09C741.29,255.541 741.741,255.09 742.29,255.09L756.89,255.09C757.439,255.09 757.89,255.541 757.89,256.09C757.89,256.639 757.439,257.09 756.89,257.09Z" style="fill:rgb(184,184,184);fill-rule:nonzero;"/>
        <path d="M758.9,250.55L748.83,250.55C748.281,250.55 747.83,250.099 747.83,249.55C747.83,249.001 748.281,248.55 748.83,248.55L758.9,248.55C759.449,248.55 759.9,249.001 759.9,249.55C759.9,250.099 759.449,250.55 758.9,250.55Z" style="fill:rgb(184,184,184);fill-rule:nonzero;"/>
        <path d="M791.62,250.55L775,250.55C774.451,250.55 774,250.099 774,249.55C774,249.001 774.451,248.55 775,248.55L791.61,248.55C792.159,248.55 792.61,249.001 792.61,249.55C792.61,250.099 792.159,250.55 791.61,250.55L791.62,250.55Z" style="fill-rule:nonzero;"/>
        <path d="M791.62,244L775,244C774.451,244 774,243.549 774,243C774,242.451 774.451,242 775,242L791.61,242C792.159,242 792.61,242.451 792.61,243C792.61,243.549 792.159,244 791.61,244L791.62,244Z" style="fill-rule:nonzero;"/>
        <path d="M790.61,237.46L785.61,237.46C785.061,237.46 784.61,237.009 784.61,236.46C784.61,235.911 785.061,235.46 785.61,235.46L790.61,235.46C791.159,235.46 791.61,235.911 791.61,236.46C791.61,237.009 791.159,237.46 790.61,237.46Z" style="fill:rgb(184,184,184);fill-rule:nonzero;"/>
        <path d="M781.05,237.46L761.42,237.46C760.871,237.46 760.42,237.009 760.42,236.46C760.42,235.911 760.871,235.46 761.42,235.46L781.05,235.46C781.599,235.46 782.05,235.911 782.05,236.46C782.05,237.009 781.599,237.46 781.05,237.46Z" style="fill-rule:nonzero;"/>
        <path d="M781.05,230.92L761.42,230.92C760.871,230.92 760.42,230.469 760.42,229.92C760.42,229.371 760.871,228.92 761.42,228.92L781.05,228.92C781.599,228.92 782.05,229.371 782.05,229.92C782.05,230.469 781.599,230.92 781.05,230.92Z" style="fill-rule:nonzero;"/>
        <path d="M785.07,230.92L750.34,230.92C749.791,230.92 749.34,230.469 749.34,229.92C749.34,229.371 749.791,228.92 750.34,228.92L785.07,228.92C785.619,228.92 786.07,229.371 786.07,229.92C786.07,230.469 785.619,230.92 785.07,230.92Z" style="fill-rule:nonzero;"/>
        <path d="M785.07,224.37L745.81,224.37C745.261,224.37 744.81,223.919 744.81,223.37C744.81,222.821 745.261,222.37 745.81,222.37L785.07,222.37C785.619,222.37 786.07,222.821 786.07,223.37C786.07,223.919 785.619,224.37 785.07,224.37Z" style="fill-rule:nonzero;"/>
        <path d="M757.39,211.29L747.32,211.29C746.771,211.29 746.32,210.839 746.32,210.29C746.32,209.741 746.771,209.29 747.32,209.29L757.39,209.29C757.939,209.29 758.39,209.741 758.39,210.29C758.39,210.839 757.939,211.29 757.39,211.29Z" style="fill-rule:nonzero;"/>
        <path d="M785.57,204.74L753.36,204.74C752.811,204.74 752.36,204.289 752.36,203.74C752.36,203.191 752.811,202.74 753.36,202.74L785.57,202.74C786.119,202.74 786.57,203.191 786.57,203.74C786.57,204.289 786.119,204.74 785.57,204.74Z" style="fill-rule:nonzero;"/>
        <path d="M787.59,211.29L762.93,211.29C762.381,211.29 761.93,210.839 761.93,210.29C761.93,209.741 762.381,209.29 762.93,209.29L787.59,209.29C788.139,209.29 788.59,209.741 788.59,210.29C788.59,210.839 788.139,211.29 787.59,211.29Z" style="fill-rule:nonzero;"/>
        <path d="M746.32,217.83L744.81,217.83C744.261,217.83 743.81,217.379 743.81,216.83C743.81,216.281 744.261,215.83 744.81,215.83L746.32,215.83C746.869,215.83 747.32,216.281 747.32,216.83C747.32,217.379 746.869,217.83 746.32,217.83Z" style="fill-rule:nonzero;"/>
        <path d="M761.42,217.83L750.34,217.83C749.791,217.83 749.34,217.379 749.34,216.83C749.34,216.281 749.791,215.83 750.34,215.83L761.42,215.83C761.969,215.83 762.42,216.281 762.42,216.83C762.42,217.379 761.969,217.83 761.42,217.83Z" style="fill:rgb(184,184,184);fill-rule:nonzero;"/>
        <path d="M821.31,250.55L805.71,250.55C805.161,250.55 804.71,250.099 804.71,249.55C804.71,249.001 805.161,248.55 805.71,248.55L821.31,248.55C821.859,248.55 822.31,249.001 822.31,249.55C822.31,250.099 821.859,250.55 821.31,250.55Z" style="fill:rgb(184,184,184);fill-rule:nonzero;"/>
        <path d="M835.91,244L803.69,244C803.141,244 802.69,243.549 802.69,243C802.69,242.451 803.141,242 803.69,242L835.91,242C836.459,242 836.91,242.451 836.91,243C836.91,243.549 836.459,244 835.91,244Z" style="fill-rule:nonzero;"/>
        <path d="M848,257.09L809.23,257.09C808.681,257.09 808.23,256.639 808.23,256.09C808.23,255.541 808.681,255.09 809.23,255.09L848,255.09C848.549,255.09 849,255.541 849,256.09C849,256.639 848.549,257.09 848,257.09Z" style="fill-rule:nonzero;"/>
        <path d="M842,263.63L818.79,263.63C818.241,263.63 817.79,263.179 817.79,262.63C817.79,262.081 818.241,261.63 818.79,261.63L842,261.63C842.549,261.63 843,262.081 843,262.63C843,263.179 842.549,263.63 842,263.63Z" style="fill-rule:nonzero;"/>
        <path d="M852,237.46L810.24,237.46C809.691,237.46 809.24,237.009 809.24,236.46C809.24,235.911 809.691,235.46 810.24,235.46L852,235.46C852.549,235.46 853,235.911 853,236.46C853,237.009 852.549,237.46 852,237.46Z" style="fill-rule:nonzero;"/>
        <path d="M819.8,230.92L804.7,230.92C804.151,230.92 803.7,230.469 803.7,229.92C803.7,229.371 804.151,228.92 804.7,228.92L819.8,228.92C820.349,228.92 820.8,229.371 820.8,229.92C820.8,230.469 820.349,230.92 819.8,230.92Z" style="fill-rule:nonzero;"/>
        <path d="M840.44,224.37L808.73,224.37C808.181,224.37 807.73,223.919 807.73,223.37C807.73,222.821 808.181,222.37 808.73,222.37L840.44,222.37C840.989,222.37 841.44,222.821 841.44,223.37C841.44,223.919 840.989,224.37 840.44,224.37Z" style="fill-rule:nonzero;"/>
        <path d="M839.43,230.92L837.43,230.92C836.881,230.92 836.43,230.469 836.43,229.92C836.43,229.371 836.881,228.92 837.43,228.92L839.43,228.92C839.979,228.92 840.43,229.371 840.43,229.92C840.43,230.469 839.979,230.92 839.43,230.92Z" style="fill-rule:nonzero;"/>
        <path d="M847.48,224.37L845.48,224.37C844.931,224.37 844.48,223.919 844.48,223.37C844.48,222.821 844.931,222.37 845.48,222.37L847.48,222.37C848.029,222.37 848.48,222.821 848.48,223.37C848.48,223.919 848.029,224.37 847.48,224.37Z" style="fill-rule:nonzero;"/>
        <path d="M805.2,237.46L803.2,237.46C802.651,237.46 802.2,237.009 802.2,236.46C802.2,235.911 802.651,235.46 803.2,235.46L805.2,235.46C805.749,235.46 806.2,235.911 806.2,236.46C806.2,237.009 805.749,237.46 805.2,237.46Z" style="fill-rule:nonzero;"/>
        <path d="M842,217.83L815.78,217.83C815.231,217.83 814.78,217.379 814.78,216.83C814.78,216.281 815.231,215.83 815.78,215.83L842,215.83C842.549,215.83 843,216.281 843,216.83C843,217.379 842.549,217.83 842,217.83Z" style="fill-rule:nonzero;"/>
        <path d="M883.22,250.55L867.62,250.55C867.071,250.55 866.62,250.099 866.62,249.55C866.62,249.001 867.071,248.55 867.62,248.55L883.22,248.55C883.769,248.55 884.22,249.001 884.22,249.55C884.22,250.099 883.769,250.55 883.22,250.55Z" style="fill-rule:nonzero;"/>
        <path d="M907.88,250.55L904.36,250.55C903.811,250.55 903.36,250.099 903.36,249.55C903.36,249.001 903.811,248.55 904.36,248.55L907.88,248.55C908.429,248.55 908.88,249.001 908.88,249.55C908.88,250.099 908.429,250.55 907.88,250.55Z" style="fill:rgb(184,184,184);fill-rule:nonzero;"/>
        <path d="M873.15,244L865.6,244C865.051,244 864.6,243.549 864.6,243C864.6,242.451 865.051,242 865.6,242L873.15,242C873.699,242 874.15,242.451 874.15,243C874.15,243.549 873.699,244 873.15,244Z" style="fill-rule:nonzero;"/>
        <path d="M881.71,244L878.71,244C878.161,244 877.71,243.549 877.71,243C877.71,242.451 878.161,242 878.71,242L881.71,242C882.259,242 882.71,242.451 882.71,243C882.71,243.549 882.259,244 881.71,244Z" style="fill-rule:nonzero;"/>
        <path d="M909.9,257.09L871.14,257.09C870.591,257.09 870.14,256.639 870.14,256.09C870.14,255.541 870.591,255.09 871.14,255.09L909.9,255.09C910.449,255.09 910.9,255.541 910.9,256.09C910.9,256.639 910.449,257.09 909.9,257.09Z" style="fill-rule:nonzero;"/>
        <path d="M903.86,263.63L880.7,263.63C880.151,263.63 879.7,263.179 879.7,262.63C879.7,262.081 880.151,261.63 880.7,261.63L903.86,261.63C904.409,261.63 904.86,262.081 904.86,262.63C904.86,263.179 904.409,263.63 903.86,263.63Z" style="fill-rule:nonzero;"/>
        <path d="M879.7,237.46L864.09,237.46C863.541,237.46 863.09,237.009 863.09,236.46C863.09,235.911 863.541,235.46 864.09,235.46L879.7,235.46C880.249,235.46 880.7,235.911 880.7,236.46C880.7,237.009 880.249,237.46 879.7,237.46Z" style="fill-rule:nonzero;"/>
        <path d="M881.71,230.92L866.61,230.92C866.061,230.92 865.61,230.469 865.61,229.92C865.61,229.371 866.061,228.92 866.61,228.92L881.71,228.92C882.259,228.92 882.71,229.371 882.71,229.92C882.71,230.469 882.259,230.92 881.71,230.92Z" style="fill:rgb(184,184,184);fill-rule:nonzero;"/>
        <path d="M905.37,230.92L903.86,230.92C903.311,230.92 902.86,230.469 902.86,229.92C902.86,229.371 903.311,228.92 903.86,228.92L905.37,228.92C905.919,228.92 906.37,229.371 906.37,229.92C906.37,230.469 905.919,230.92 905.37,230.92Z" style="fill-rule:nonzero;"/>
        <path d="M881.21,224.37L870.64,224.37C870.091,224.37 869.64,223.919 869.64,223.37C869.64,222.821 870.091,222.37 870.64,222.37L881.21,222.37C881.759,222.37 882.21,222.821 882.21,223.37C882.21,223.919 881.759,224.37 881.21,224.37Z" style="fill:rgb(184,184,184);fill-rule:nonzero;"/>
        <path d="M909.39,224.37L886.24,224.37C885.691,224.37 885.24,223.919 885.24,223.37C885.24,222.821 885.691,222.37 886.24,222.37L909.39,222.37C909.939,222.37 910.39,222.821 910.39,223.37C910.39,223.919 909.939,224.37 909.39,224.37Z" style="fill-rule:nonzero;"/>
        <path d="M905.87,217.83L877.68,217.83C877.131,217.83 876.68,217.379 876.68,216.83C876.68,216.281 877.131,215.83 877.68,215.83L905.87,215.83C906.419,215.83 906.87,216.281 906.87,216.83C906.87,217.379 906.419,217.83 905.87,217.83Z" style="fill-rule:nonzero;"/>
        <path d="M850.55,230.92L844,230.92C843.451,230.92 843,230.469 843,229.92C843,229.371 843.451,228.92 844,228.92L850.55,228.92C851.099,228.92 851.55,229.371 851.55,229.92C851.55,230.469 851.099,230.92 850.55,230.92Z" style="fill:white;fill-rule:nonzero;"/>
        <path d="M850.51,244L842.45,244C841.901,244 841.45,243.549 841.45,243C841.45,242.451 841.901,242 842.45,242L850.51,242C851.059,242 851.51,242.451 851.51,243C851.51,243.549 851.059,244 850.51,244Z" style="fill-rule:nonzero;"/>
        <path d="M780.54,263.63L754.87,263.63C754.321,263.63 753.87,263.179 753.87,262.63C753.87,262.081 754.321,261.63 754.87,261.63L780.54,261.63C781.089,261.63 781.54,262.081 781.54,262.63C781.54,263.179 781.089,263.63 780.54,263.63Z" style="fill-rule:nonzero;"/>
        <path d="M788.09,257.09L762.42,257.09C761.871,257.09 761.42,256.639 761.42,256.09C761.42,255.541 761.871,255.09 762.42,255.09L788.09,255.09C788.639,255.09 789.09,255.541 789.09,256.09C789.09,256.639 788.639,257.09 788.09,257.09Z" style="fill-rule:nonzero;"/>
        <path d="M682,230.61L642.3,230.61C641.818,230.56 641.447,230.15 641.447,229.665C641.447,229.18 641.818,228.77 642.3,228.72L682,228.72C682.032,228.717 682.065,228.715 682.097,228.715C682.618,228.715 683.047,229.144 683.047,229.665C683.047,230.186 682.618,230.615 682.097,230.615C682.065,230.615 682.032,230.613 682,230.61Z" style="fill-rule:nonzero;"/>
        <path d="M682,237.15L642.3,237.15C641.891,237.015 641.612,236.631 641.612,236.2C641.612,235.769 641.891,235.385 642.3,235.25L682,235.25C682.521,235.25 682.95,235.679 682.95,236.2C682.95,236.721 682.521,237.15 682,237.15Z" style="fill-rule:nonzero;"/>
        <path d="M627.66,204.49L619.57,204.49C619.049,204.49 618.62,204.061 618.62,203.54C618.62,203.019 619.049,202.59 619.57,202.59L627.66,202.59C628.181,202.59 628.61,203.019 628.61,203.54C628.61,204.061 628.181,204.49 627.66,204.49Z" style="fill-rule:nonzero;"/>
        <path d="M630.19,211L617,211C616.479,211 616.05,210.571 616.05,210.05C616.05,209.529 616.479,209.1 617,209.1L630.15,209.1C630.251,209.067 630.356,209.05 630.462,209.05C631.011,209.05 631.462,209.501 631.462,210.05C631.462,210.599 631.011,211.05 630.462,211.05C630.356,211.05 630.251,211.033 630.15,211L630.19,211Z" style="fill-rule:nonzero;"/>
        <path d="M642.2,217.55L612,217.55C611.518,217.5 611.147,217.09 611.147,216.605C611.147,216.12 611.518,215.71 612,215.66L642.2,215.66C642.232,215.657 642.265,215.655 642.297,215.655C642.818,215.655 643.247,216.084 643.247,216.605C643.247,217.126 642.818,217.555 642.297,217.555C642.265,217.555 642.232,217.553 642.2,217.55Z" style="fill-rule:nonzero;"/>
        <path d="M621.34,224.08L614.51,224.08C614.028,224.03 613.657,223.62 613.657,223.135C613.657,222.65 614.028,222.24 614.51,222.19L621.34,222.19C621.372,222.187 621.405,222.185 621.437,222.185C621.958,222.185 622.387,222.614 622.387,223.135C622.387,223.656 621.958,224.085 621.437,224.085C621.405,224.085 621.372,224.083 621.34,224.08Z" style="fill-rule:nonzero;"/>
        <path d="M656.73,224.08L629.68,224.08C629.648,224.083 629.615,224.085 629.583,224.085C629.062,224.085 628.633,223.656 628.633,223.135C628.633,222.614 629.062,222.185 629.583,222.185C629.615,222.185 629.648,222.187 629.68,222.19L656.73,222.19C656.762,222.187 656.795,222.185 656.827,222.185C657.348,222.185 657.777,222.614 657.777,223.135C657.777,223.656 657.348,224.085 656.827,224.085C656.795,224.085 656.762,224.083 656.73,224.08Z" style="fill-rule:nonzero;"/>
        <path d="M621.34,243.68L614.51,243.68C614.101,243.545 613.822,243.161 613.822,242.73C613.822,242.299 614.101,241.915 614.51,241.78L621.34,241.78C621.441,241.747 621.546,241.73 621.652,241.73C622.201,241.73 622.652,242.181 622.652,242.73C622.652,243.279 622.201,243.73 621.652,243.73C621.546,243.73 621.441,243.713 621.34,243.68Z" style="fill:rgb(184,184,184);fill-rule:nonzero;"/>
        <path d="M655.15,243.68L629.05,243.68C628.529,243.68 628.1,243.251 628.1,242.73C628.1,242.209 628.529,241.78 629.05,241.78L655.15,241.78C655.671,241.78 656.1,242.209 656.1,242.73C656.1,243.251 655.671,243.68 655.15,243.68Z" style="fill-rule:nonzero;"/>
        <path d="M642.51,250.21L613.25,250.21C612.729,250.21 612.3,249.781 612.3,249.26C612.3,248.739 612.729,248.31 613.25,248.31L642.51,248.31C643.031,248.31 643.46,248.739 643.46,249.26C643.46,249.781 643.031,250.21 642.51,250.21Z" style="fill-rule:nonzero;"/>
        <path d="M629.56,256.74L617.67,256.74C617.261,256.605 616.982,256.221 616.982,255.79C616.982,255.359 617.261,254.975 617.67,254.84L629.56,254.84C629.969,254.975 630.248,255.359 630.248,255.79C630.248,256.221 629.969,256.605 629.56,256.74Z" style="fill:rgb(184,184,184);fill-rule:nonzero;"/>
        <path d="M627.66,263.27L618.94,263.27C618.908,263.273 618.875,263.275 618.843,263.275C618.322,263.275 617.893,262.846 617.893,262.325C617.893,261.804 618.322,261.375 618.843,261.375C618.875,261.375 618.908,261.377 618.94,261.38L627.66,261.38C627.692,261.377 627.725,261.375 627.757,261.375C628.278,261.375 628.707,261.804 628.707,262.325C628.707,262.846 628.278,263.275 627.757,263.275C627.725,263.275 627.692,263.273 627.66,263.27Z" style="fill-rule:nonzero;"/>
        <path d="M705.4,204.49L697.31,204.49C696.901,204.355 696.622,203.971 696.622,203.54C696.622,203.109 696.901,202.725 697.31,202.59L705.4,202.59C705.921,202.59 706.35,203.019 706.35,203.54C706.35,204.061 705.921,204.49 705.4,204.49Z" style="fill-rule:nonzero;"/>
        <path d="M707.93,211L694.79,211C694.269,211 693.84,210.571 693.84,210.05C693.84,209.529 694.269,209.1 694.79,209.1L707.93,209.1C708.451,209.1 708.88,209.529 708.88,210.05C708.88,210.571 708.451,211 707.93,211Z" style="fill-rule:nonzero;"/>
        <path d="M713,217.55L682.78,217.55C682.748,217.553 682.715,217.555 682.683,217.555C682.162,217.555 681.733,217.126 681.733,216.605C681.733,216.084 682.162,215.655 682.683,215.655C682.715,215.655 682.748,215.657 682.78,215.66L713,215.66C713.032,215.657 713.065,215.655 713.097,215.655C713.618,215.655 714.047,216.084 714.047,216.605C714.047,217.126 713.618,217.555 713.097,217.555C713.065,217.555 713.032,217.553 713,217.55Z" style="fill-rule:nonzero;"/>
        <path d="M710.46,224.08L703.64,224.08C703.608,224.083 703.575,224.085 703.543,224.085C703.022,224.085 702.593,223.656 702.593,223.135C702.593,222.614 703.022,222.185 703.543,222.185C703.575,222.185 703.608,222.187 703.64,222.19L710.46,222.19C710.492,222.187 710.525,222.185 710.557,222.185C711.078,222.185 711.507,222.614 711.507,223.135C711.507,223.656 711.078,224.085 710.557,224.085C710.525,224.085 710.492,224.083 710.46,224.08Z" style="fill:rgb(184,184,184);fill-rule:nonzero;"/>
        <path d="M695.29,224.08L668.29,224.08C668.258,224.083 668.225,224.085 668.193,224.085C667.672,224.085 667.243,223.656 667.243,223.135C667.243,222.614 667.672,222.185 668.193,222.185C668.225,222.185 668.258,222.187 668.29,222.19L695.29,222.19C695.322,222.187 695.355,222.185 695.387,222.185C695.908,222.185 696.337,222.614 696.337,223.135C696.337,223.656 695.908,224.085 695.387,224.085C695.355,224.085 695.322,224.083 695.29,224.08Z" style="fill-rule:nonzero;"/>
        <path d="M710.46,243.68L703.64,243.68C703.119,243.68 702.69,243.251 702.69,242.73C702.69,242.209 703.119,241.78 703.64,241.78L710.46,241.78C710.561,241.747 710.666,241.73 710.772,241.73C711.321,241.73 711.772,242.181 711.772,242.73C711.772,243.279 711.321,243.73 710.772,243.73C710.666,243.73 710.561,243.713 710.46,243.68Z" style="fill-rule:nonzero;"/>
        <path d="M695.92,243.68L669.82,243.68C669.299,243.68 668.87,243.251 668.87,242.73C668.87,242.209 669.299,241.78 669.82,241.78L695.92,241.78C696.441,241.78 696.87,242.209 696.87,242.73C696.87,243.251 696.441,243.68 695.92,243.68Z" style="fill-rule:nonzero;"/>
        <path d="M711.73,250.21L682.46,250.21C681.939,250.21 681.51,249.781 681.51,249.26C681.51,248.739 681.939,248.31 682.46,248.31L711.73,248.31C712.139,248.445 712.418,248.829 712.418,249.26C712.418,249.691 712.139,250.075 711.73,250.21Z" style="fill-rule:nonzero;"/>
        <path d="M707.3,256.74L695.42,256.74C694.899,256.74 694.47,256.311 694.47,255.79C694.47,255.269 694.899,254.84 695.42,254.84L707.3,254.84C707.821,254.84 708.25,255.269 708.25,255.79C708.25,256.311 707.821,256.74 707.3,256.74Z" style="fill-rule:nonzero;"/>
        <path d="M706,263.27L697.27,263.27C696.788,263.22 696.417,262.81 696.417,262.325C696.417,261.84 696.788,261.43 697.27,261.38L706,261.38C706.482,261.43 706.853,261.84 706.853,262.325C706.853,262.81 706.482,263.22 706,263.27Z" style="fill-rule:nonzero;"/>
        <path d="M654.42,188.73L642.53,188.73C641.981,188.73 641.53,188.279 641.53,187.73C641.53,187.181 641.981,186.73 642.53,186.73L654.42,186.73C654.969,186.73 655.42,187.181 655.42,187.73C655.42,188.279 654.969,188.73 654.42,188.73Z" style="fill-rule:nonzero;"/>
        <path d="M693.49,175.92L679.57,175.92C679.021,175.92 678.57,175.469 678.57,174.92C678.57,174.371 679.021,173.92 679.57,173.92L693.49,173.92C694.039,173.92 694.49,174.371 694.49,174.92C694.49,175.469 694.039,175.92 693.49,175.92Z" style="fill-rule:nonzero;"/>
        <path d="M674.6,175.92L639.43,175.92C638.881,175.92 638.43,175.469 638.43,174.92C638.43,174.371 638.881,173.92 639.43,173.92L674.6,173.92C675.149,173.92 675.6,174.371 675.6,174.92C675.6,175.469 675.149,175.92 674.6,175.92Z" style="fill-rule:nonzero;"/>
        <path d="M656.24,169.51L619.18,169.51C618.631,169.51 618.18,169.059 618.18,168.51C618.18,167.961 618.631,167.51 619.18,167.51L656.24,167.51C656.789,167.51 657.24,167.961 657.24,168.51C657.24,169.059 656.789,169.51 656.24,169.51Z" style="fill-rule:nonzero;"/>
        <path d="M646.38,163.11L619.18,163.11C618.631,163.11 618.18,162.659 618.18,162.11C618.18,161.561 618.631,161.11 619.18,161.11L646.38,161.11C646.929,161.11 647.38,161.561 647.38,162.11C647.38,162.659 646.929,163.11 646.38,163.11Z" style="fill-rule:nonzero;"/>
        <path d="M662.64,163.11L651.71,163.11C651.161,163.11 650.71,162.659 650.71,162.11C650.71,161.561 651.161,161.11 651.71,161.11L662.64,161.11C663.189,161.11 663.64,161.561 663.64,162.11C663.64,162.659 663.189,163.11 662.64,163.11Z" style="fill-rule:nonzero;"/>
        <path d="M710.85,169.51L678.41,169.51C677.861,169.51 677.41,169.059 677.41,168.51C677.41,167.961 677.861,167.51 678.41,167.51L710.85,167.51C711.399,167.51 711.85,167.961 711.85,168.51C711.85,169.059 711.399,169.51 710.85,169.51Z" style="fill-rule:nonzero;"/>
        <path d="M713.8,163.11L671,163.11C670.451,163.11 670,162.659 670,162.11C670,161.561 670.451,161.11 671,161.11L713.8,161.11C714.349,161.11 714.8,161.561 714.8,162.11C714.8,162.659 714.349,163.11 713.8,163.11Z" style="fill-rule:nonzero;"/>
        <path d="M635.54,156.7L619.18,156.7C618.631,156.7 618.18,156.249 618.18,155.7C618.18,155.151 618.631,154.7 619.18,154.7L635.54,154.7C636.089,154.7 636.54,155.151 636.54,155.7C636.54,156.249 636.089,156.7 635.54,156.7Z" style="fill-rule:nonzero;"/>
        <path d="M634.64,150.29L619.18,150.29C618.631,150.29 618.18,149.839 618.18,149.29C618.18,148.741 618.631,148.29 619.18,148.29L634.64,148.29C635.189,148.29 635.64,148.741 635.64,149.29C635.64,149.839 635.189,150.29 634.64,150.29Z" style="fill-rule:nonzero;"/>
        <path d="M635.63,143.89L620.17,143.89C619.621,143.89 619.17,143.439 619.17,142.89C619.17,142.341 619.621,141.89 620.17,141.89L635.63,141.89C636.179,141.89 636.63,142.341 636.63,142.89C636.63,143.439 636.179,143.89 635.63,143.89Z" style="fill-rule:nonzero;"/>
        <path d="M624.79,137.48L621.16,137.48C620.611,137.48 620.16,137.029 620.16,136.48C620.16,135.931 620.611,135.48 621.16,135.48L624.79,135.48C625.339,135.48 625.79,135.931 625.79,136.48C625.79,137.029 625.339,137.48 624.79,137.48Z" style="fill-rule:nonzero;"/>
        <path d="M639.08,137.48L629,137.48C628.451,137.48 628,137.029 628,136.48C628,135.931 628.451,135.48 629,135.48L639,135.48C639.549,135.48 640,135.931 640,136.48C640,137.029 639.549,137.48 639,137.48L639.08,137.48Z" style="fill:rgb(184,184,184);fill-rule:nonzero;"/>
        <path d="M714.79,150.29L700.5,150.29C699.951,150.29 699.5,149.839 699.5,149.29C699.5,148.741 699.951,148.29 700.5,148.29L714.79,148.29C715.339,148.29 715.79,148.741 715.79,149.29C715.79,149.839 715.339,150.29 714.79,150.29Z" style="fill-rule:nonzero;"/>
        <path d="M669.94,150.29L664,150.29C663.451,150.29 663,149.839 663,149.29C663,148.741 663.451,148.29 664,148.29L669.91,148.29C670.459,148.29 670.91,148.741 670.91,149.29C670.91,149.839 670.459,150.29 669.91,150.29L669.94,150.29Z" style="fill-rule:nonzero;"/>
        <path d="M670.93,143.89L663,143.89C662.451,143.89 662,143.439 662,142.89C662,142.341 662.451,141.89 663,141.89L670.89,141.89C671.439,141.89 671.89,142.341 671.89,142.89C671.89,143.439 671.439,143.89 670.89,143.89L670.93,143.89Z" style="fill-rule:nonzero;"/>
        <path d="M714.3,143.89L699,143.89C698.451,143.89 698,143.439 698,142.89C698,142.341 698.451,141.89 699,141.89L714.3,141.89C714.849,141.89 715.3,142.341 715.3,142.89C715.3,143.439 714.849,143.89 714.3,143.89Z" style="fill-rule:nonzero;"/>
        <path d="M621.7,156.7L619.18,156.7C618.631,156.7 618.18,156.249 618.18,155.7C618.18,155.151 618.631,154.7 619.18,154.7L621.7,154.7C622.249,154.7 622.7,155.151 622.7,155.7C622.7,156.249 622.249,156.7 621.7,156.7Z" style="fill-rule:nonzero;"/>
        <path d="M635.54,156.7L633,156.7C632.451,156.7 632,156.249 632,155.7C632,155.151 632.451,154.7 633,154.7L635.52,154.7C636.069,154.7 636.52,155.151 636.52,155.7C636.52,156.249 636.069,156.7 635.52,156.7L635.54,156.7Z" style="fill-rule:nonzero;"/>
        <path d="M691.91,182.33L642.49,182.33C641.941,182.33 641.49,181.879 641.49,181.33C641.49,180.781 641.941,180.33 642.49,180.33L691.91,180.33C692.459,180.33 692.91,180.781 692.91,181.33C692.91,181.879 692.459,182.33 691.91,182.33Z" style="fill-rule:nonzero;"/>
        <path d="M645.37,195.14L643,195.14C642.451,195.14 642,194.689 642,194.14C642,193.591 642.451,193.14 643,193.14L645.35,193.14C645.899,193.14 646.35,193.591 646.35,194.14C646.35,194.689 645.899,195.14 645.35,195.14L645.37,195.14Z" style="fill-rule:nonzero;"/>
        <path d="M671.67,188.73L665.2,188.73C664.651,188.73 664.2,188.279 664.2,187.73C664.2,187.181 664.651,186.73 665.2,186.73L671.67,186.73C672.219,186.73 672.67,187.181 672.67,187.73C672.67,188.279 672.219,188.73 671.67,188.73Z" style="fill-rule:nonzero;"/>
        <path d="M671.49,195.14L665.69,195.14C665.141,195.14 664.69,194.689 664.69,194.14C664.69,193.591 665.141,193.14 665.69,193.14L671.49,193.14C672.039,193.14 672.49,193.591 672.49,194.14C672.49,194.689 672.039,195.14 671.49,195.14Z" style="fill-rule:nonzero;"/>
        <path d="M691.38,188.73L682.94,188.73C682.391,188.73 681.94,188.279 681.94,187.73C681.94,187.181 682.391,186.73 682.94,186.73L691.38,186.73C691.929,186.73 692.38,187.181 692.38,187.73C692.38,188.279 691.929,188.73 691.38,188.73Z" style="fill:rgb(184,184,184);fill-rule:nonzero;"/>
        <path d="M691.2,195.14L682.94,195.14C682.391,195.14 681.94,194.689 681.94,194.14C681.94,193.591 682.391,193.14 682.94,193.14L691.2,193.14C691.749,193.14 692.2,193.591 692.2,194.14C692.2,194.689 691.749,195.14 691.2,195.14Z" style="fill-rule:nonzero;"/>
        <path d="M654.42,195.14L650.33,195.14C649.781,195.14 649.33,194.689 649.33,194.14C649.33,193.591 649.781,193.14 650.33,193.14L654.42,193.14C654.969,193.14 655.42,193.591 655.42,194.14C655.42,194.689 654.969,195.14 654.42,195.14Z" style="fill-rule:nonzero;"/>
        <path d="M714.39,156.7L698,156.7C697.451,156.7 697,156.249 697,155.7C697,155.151 697.451,154.7 698,154.7L714.36,154.7C714.909,154.7 715.36,155.151 715.36,155.7C715.36,156.249 714.909,156.7 714.36,156.7L714.39,156.7Z" style="fill-rule:nonzero;"/>
        <path d="M672.5,156.7L661.07,156.7C660.521,156.7 660.07,156.249 660.07,155.7C660.07,155.151 660.521,154.7 661.07,154.7L672.5,154.7C673.049,154.7 673.5,155.151 673.5,155.7C673.5,156.249 673.049,156.7 672.5,156.7Z" style="fill-rule:nonzero;"/>
        <path d="M675.05,137.48L659.59,137.48C659.041,137.48 658.59,137.029 658.59,136.48C658.59,135.931 659.041,135.48 659.59,135.48L675.05,135.48C675.599,135.48 676.05,135.931 676.05,136.48C676.05,137.029 675.599,137.48 675.05,137.48Z" style="fill-rule:nonzero;"/>
        <path d="M675.05,131.07L639.88,131.07C639.331,131.07 638.88,130.619 638.88,130.07C638.88,129.521 639.331,129.07 639.88,129.07L675.05,129.07C675.599,129.07 676.05,129.521 676.05,130.07C676.05,130.619 675.599,131.07 675.05,131.07Z" style="fill-rule:nonzero;"/>
        <path d="M692.79,124.67L625.1,124.67C624.551,124.67 624.1,124.219 624.1,123.67C624.1,123.121 624.551,122.67 625.1,122.67L692.79,122.67C693.339,122.67 693.79,123.121 693.79,123.67C693.79,124.219 693.339,124.67 692.79,124.67Z" style="fill-rule:nonzero;"/>
        <path d="M705.11,118.26L683.91,118.26C683.361,118.26 682.91,117.809 682.91,117.26C682.91,116.711 683.361,116.26 683.91,116.26L705.11,116.26C705.659,116.26 706.11,116.711 706.11,117.26C706.11,117.809 705.659,118.26 705.11,118.26Z" style="fill-rule:nonzero;"/>
        <path d="M665.13,118.26L630.52,118.26C629.971,118.26 629.52,117.809 629.52,117.26C629.52,116.711 629.971,116.26 630.52,116.26L665.13,116.26C665.679,116.26 666.13,116.711 666.13,117.26C666.13,117.809 665.679,118.26 665.13,118.26Z" style="fill-rule:nonzero;"/>
        <path d="M708.88,124.67L698.21,124.67C697.661,124.67 697.21,124.219 697.21,123.67C697.21,123.121 697.661,122.67 698.21,122.67L708.88,122.67C709.429,122.67 709.88,123.121 709.88,123.67C709.88,124.219 709.429,124.67 708.88,124.67Z" style="fill-rule:nonzero;"/>
        <path d="M679.55,118.26L670.09,118.26C669.541,118.26 669.09,117.809 669.09,117.26C669.09,116.711 669.541,116.26 670.09,116.26L679.55,116.26C680.099,116.26 680.55,116.711 680.55,117.26C680.55,117.809 680.099,118.26 679.55,118.26Z" style="fill:rgb(184,184,184);fill-rule:nonzero;"/>
        <path d="M708.88,118.26L698.21,118.26C697.661,118.26 697.21,117.809 697.21,117.26C697.21,116.711 697.661,116.26 698.21,116.26L708.88,116.26C709.429,116.26 709.88,116.711 709.88,117.26C709.88,117.809 709.429,118.26 708.88,118.26Z" style="fill-rule:nonzero;"/>
        <path d="M672.62,111.85L634,111.85C633.451,111.85 633,111.399 633,110.85C633,110.301 633.451,109.85 634,109.85L672.62,109.85C673.169,109.85 673.62,110.301 673.62,110.85C673.62,111.399 673.169,111.85 672.62,111.85Z" style="fill-rule:nonzero;"/>
        <path d="M691.32,105.45L641.85,105.45C641.301,105.45 640.85,104.999 640.85,104.45C640.85,103.901 641.301,103.45 641.85,103.45L691.32,103.45C691.869,103.45 692.32,103.901 692.32,104.45C692.32,104.999 691.869,105.45 691.32,105.45Z" style="fill-rule:nonzero;"/>
        <path d="M678,99L655.16,99C654.611,99 654.16,98.549 654.16,98C654.16,97.451 654.611,97 655.16,97L678,97C678.549,97 679,97.451 679,98C679,98.549 678.549,99 678,99Z" style="fill-rule:nonzero;"/>
        <path d="M699.51,111.85L688.85,111.85C688.301,111.85 687.85,111.399 687.85,110.85C687.85,110.301 688.301,109.85 688.85,109.85L699.51,109.85C700.059,109.85 700.51,110.301 700.51,110.85C700.51,111.399 700.059,111.85 699.51,111.85Z" style="fill-rule:nonzero;"/>
        <path d="M684.23,111.85L678,111.85C677.451,111.85 677,111.399 677,110.85C677,110.301 677.451,109.85 678,109.85L684.22,109.85C684.769,109.85 685.22,110.301 685.22,110.85C685.22,111.399 684.769,111.85 684.22,111.85L684.23,111.85Z" style="fill:rgb(184,184,184);fill-rule:nonzero;"/>
        <path d="M634.46,131.07L622.63,131.07C622.081,131.07 621.63,130.619 621.63,130.07C621.63,129.521 622.081,129.07 622.63,129.07L634.46,129.07C635.009,129.07 635.46,129.521 635.46,130.07C635.46,130.619 635.009,131.07 634.46,131.07Z" style="fill-rule:nonzero;"/>
        <path d="M713,137.48L694.58,137.48C694.031,137.48 693.58,137.029 693.58,136.48C693.58,135.931 694.031,135.48 694.58,135.48L713,135.48C713.549,135.48 714,135.931 714,136.48C714,137.029 713.549,137.48 713,137.48Z" style="fill-rule:nonzero;"/>
        <path d="M710.85,131.07L680.29,131.07C679.741,131.07 679.29,130.619 679.29,130.07C679.29,129.521 679.741,129.07 680.29,129.07L710.85,129.07C711.399,129.07 711.85,129.521 711.85,130.07C711.85,130.619 711.399,131.07 710.85,131.07Z" style="fill-rule:nonzero;"/>
        <path d="M828.47,98.94L816.89,98.94C816.341,98.94 815.89,98.489 815.89,97.94C815.89,97.391 816.341,96.94 816.89,96.94L828.47,96.94C829.019,96.94 829.47,97.391 829.47,97.94C829.47,98.489 829.019,98.94 828.47,98.94Z" style="fill-rule:nonzero;"/>
        <path d="M835.51,98.94L834,98.94C833.451,98.94 833,98.489 833,97.94C833,97.391 833.451,96.94 834,96.94L835.51,96.94C836.059,96.94 836.51,97.391 836.51,97.94C836.51,98.489 836.059,98.94 835.51,98.94Z" style="fill-rule:nonzero;"/>
        <path d="M826.45,104.48L814.88,104.48C814.331,104.48 813.88,104.029 813.88,103.48C813.88,102.931 814.331,102.48 814.88,102.48L826.45,102.48C826.999,102.48 827.45,102.931 827.45,103.48C827.45,104.029 826.999,104.48 826.45,104.48Z" style="fill-rule:nonzero;"/>
        <path d="M837.54,104.48L832,104.48C831.451,104.48 831,104.029 831,103.48C831,102.931 831.451,102.48 832,102.48L837.54,102.48C838.089,102.48 838.54,102.931 838.54,103.48C838.54,104.029 838.089,104.48 837.54,104.48Z" style="fill-rule:nonzero;"/>
        <path d="M815.88,111L812.88,111C812.331,111 811.88,110.549 811.88,110C811.88,109.451 812.331,109 812.88,109L815.88,109C816.429,109 816.88,109.451 816.88,110C816.88,110.549 816.429,111 815.88,111Z" style="fill-rule:nonzero;"/>
        <path d="M839.54,111L834,111C833.451,111 833,110.549 833,110C833,109.451 833.451,109 834,109L839.54,109C840.089,109 840.54,109.451 840.54,110C840.54,110.549 840.089,111 839.54,111Z" style="fill-rule:nonzero;"/>
        <path d="M826.45,111L820.92,111C820.371,111 819.92,110.549 819.92,110C819.92,109.451 820.371,109 820.92,109L826.45,109C826.999,109 827.45,109.451 827.45,110C827.45,110.549 826.999,111 826.45,111Z" style="fill:rgb(184,184,184);fill-rule:nonzero;"/>
        <path d="M822.93,117.57L810.85,117.57C810.301,117.57 809.85,117.119 809.85,116.57C809.85,116.021 810.301,115.57 810.85,115.57L822.93,115.57C823.479,115.57 823.93,116.021 823.93,116.57C823.93,117.119 823.479,117.57 822.93,117.57Z" style="fill-rule:nonzero;"/>
        <path d="M867.22,117.57L862.69,117.57C862.141,117.57 861.69,117.119 861.69,116.57C861.69,116.021 862.141,115.57 862.69,115.57L867.22,115.57C867.769,115.57 868.22,116.021 868.22,116.57C868.22,117.119 867.769,117.57 867.22,117.57Z" style="fill-rule:nonzero;"/>
        <path d="M876.28,117.57L871.75,117.57C871.201,117.57 870.75,117.119 870.75,116.57C870.75,116.021 871.201,115.57 871.75,115.57L876.28,115.57C876.829,115.57 877.28,116.021 877.28,116.57C877.28,117.119 876.829,117.57 876.28,117.57Z" style="fill-rule:nonzero;"/>
        <path d="M892.89,117.57L881.82,117.57C881.271,117.57 880.82,117.119 880.82,116.57C880.82,116.021 881.271,115.57 881.82,115.57L892.89,115.57C893.439,115.57 893.89,116.021 893.89,116.57C893.89,117.119 893.439,117.57 892.89,117.57Z" style="fill-rule:nonzero;"/>
        <path d="M902,117.57L897.47,117.57C896.921,117.57 896.47,117.119 896.47,116.57C896.47,116.021 896.921,115.57 897.47,115.57L902,115.57C902.549,115.57 903,116.021 903,116.57C903,117.119 902.549,117.57 902,117.57Z" style="fill-rule:nonzero;"/>
        <path d="M880.31,124.11L862.69,124.11C862.141,124.11 861.69,123.659 861.69,123.11C861.69,122.561 862.141,122.11 862.69,122.11L880.31,122.11C880.859,122.11 881.31,122.561 881.31,123.11C881.31,123.659 880.859,124.11 880.31,124.11Z" style="fill-rule:nonzero;"/>
        <path d="M896.92,124.11L884.84,124.11C884.291,124.11 883.84,123.659 883.84,123.11C883.84,122.561 884.291,122.11 884.84,122.11L896.92,122.11C897.469,122.11 897.92,122.561 897.92,123.11C897.92,123.659 897.469,124.11 896.92,124.11Z" style="fill:rgb(184,184,184);fill-rule:nonzero;"/>
        <path d="M907,124.11C906.451,124.11 906,123.659 906,123.11C906.001,122.843 906.109,122.587 906.3,122.4C906.488,122.211 906.743,122.104 907.01,122.104C907.559,122.104 908.01,122.556 908.01,123.104C908.01,123.106 908.01,123.108 908.01,123.11C908.01,123.659 907.559,124.11 907.01,124.11L907,124.11Z" style="fill-rule:nonzero;"/>
        <path d="M902.46,124.11L902.26,124.11C902.194,124.101 902.13,124.08 902.07,124.05C902.009,124.03 901.951,124 901.9,123.96L901.74,123.83C901.553,123.641 901.448,123.386 901.45,123.12C901.454,122.855 901.557,122.602 901.74,122.41C901.786,122.361 901.84,122.321 901.9,122.29C901.953,122.251 902.01,122.218 902.07,122.19L902.26,122.19C902.589,122.121 902.932,122.223 903.17,122.46C903.353,122.652 903.456,122.905 903.46,123.17C903.46,123.719 903.009,124.17 902.46,124.17L902.46,124.11Z" style="fill:rgb(184,184,184);fill-rule:nonzero;"/>
        <path d="M877.79,130.65L862.69,130.65C862.141,130.65 861.69,130.199 861.69,129.65C861.69,129.101 862.141,128.65 862.69,128.65L877.79,128.65C878.339,128.65 878.79,129.101 878.79,129.65C878.79,130.199 878.339,130.65 877.79,130.65Z" style="fill-rule:nonzero;"/>
        <path d="M902,130.65L893.4,130.65C892.851,130.65 892.4,130.199 892.4,129.65C892.4,129.101 892.851,128.65 893.4,128.65L902,128.65C902.549,128.65 903,129.101 903,129.65C903,130.199 902.549,130.65 902,130.65Z" style="fill-rule:nonzero;"/>
        <path d="M909.5,130.65L895.41,130.65C894.861,130.65 894.41,130.199 894.41,129.65C894.41,129.101 894.861,128.65 895.41,128.65L909.5,128.65C910.049,128.65 910.5,129.101 910.5,129.65C910.5,130.199 910.049,130.65 909.5,130.65Z" style="fill-rule:nonzero;"/>
        <path d="M877.79,137.2L862.69,137.2C862.141,137.2 861.69,136.749 861.69,136.2C861.69,135.651 862.141,135.2 862.69,135.2L877.79,135.2C878.339,135.2 878.79,135.651 878.79,136.2C878.79,136.749 878.339,137.2 877.79,137.2Z" style="fill:rgb(184,184,184);fill-rule:nonzero;"/>
        <path d="M866.72,143.74L862.72,143.74C862.171,143.74 861.72,143.289 861.72,142.74C861.72,142.191 862.171,141.74 862.72,141.74L866.72,141.74C867.269,141.74 867.72,142.191 867.72,142.74C867.72,143.289 867.269,143.74 866.72,143.74Z" style="fill:rgb(184,184,184);fill-rule:nonzero;"/>
        <path d="M878.3,143.74L874.3,143.74C873.751,143.74 873.3,143.289 873.3,142.74C873.3,142.191 873.751,141.74 874.3,141.74L878.3,141.74C878.849,141.74 879.3,142.191 879.3,142.74C879.3,143.289 878.849,143.74 878.3,143.74Z" style="fill-rule:nonzero;"/>
        <path d="M898.43,143.74L894.43,143.74C893.881,143.74 893.43,143.289 893.43,142.74C893.43,142.191 893.881,141.74 894.43,141.74L898.43,141.74C898.979,141.74 899.43,142.191 899.43,142.74C899.43,143.289 898.979,143.74 898.43,143.74Z" style="fill-rule:nonzero;"/>
        <path d="M906,137.2L894.4,137.2C893.851,137.2 893.4,136.749 893.4,136.2C893.4,135.651 893.851,135.2 894.4,135.2L906,135.2C906.549,135.2 907,135.651 907,136.2C907,136.749 906.549,137.2 906,137.2Z" style="fill-rule:nonzero;"/>
        <path d="M910,137.2C909.733,137.199 909.477,137.091 909.29,136.9C909.107,136.708 909.004,136.455 909,136.19C909,136.185 909,136.179 909,136.174C909,135.625 909.451,135.174 910,135.174C910.271,135.174 910.532,135.284 910.72,135.48C910.909,135.668 911.016,135.923 911.016,136.19C911.016,136.457 910.909,136.712 910.72,136.9C910.531,137.093 910.271,137.202 910,137.2Z" style="fill-rule:nonzero;"/>
        <path d="M910.55,143.74L903,143.74C902.451,143.74 902,143.289 902,142.74C902,142.191 902.451,141.74 903,141.74L910.55,141.74C911.099,141.74 911.55,142.191 911.55,142.74C911.55,143.289 911.099,143.74 910.55,143.74Z" style="fill-rule:nonzero;"/>
        <path d="M878.3,150.28L862.69,150.28C862.141,150.28 861.69,149.829 861.69,149.28C861.69,148.731 862.141,148.28 862.69,148.28L878.3,148.28C878.849,148.28 879.3,148.731 879.3,149.28C879.3,149.829 878.849,150.28 878.3,150.28Z" style="fill-rule:nonzero;"/>
        <path d="M899.44,150.28L891.38,150.28C890.831,150.28 890.38,149.829 890.38,149.28C890.38,148.731 890.831,148.28 891.38,148.28L899.44,148.28C899.989,148.28 900.44,148.731 900.44,149.28C900.44,149.829 899.989,150.28 899.44,150.28Z" style="fill-rule:nonzero;"/>
        <path d="M909,150.28L905,150.28C904.451,150.28 904,149.829 904,149.28C904,148.731 904.451,148.28 905,148.28L909,148.28C909.549,148.28 910,148.731 910,149.28C910,149.829 909.549,150.28 909,150.28Z" style="fill-rule:nonzero;"/>
        <path d="M872.26,156.83L862.69,156.83C862.141,156.83 861.69,156.379 861.69,155.83C861.69,155.281 862.141,154.83 862.69,154.83L872.26,154.83C872.809,154.83 873.26,155.281 873.26,155.83C873.26,156.379 872.809,156.83 872.26,156.83Z" style="fill-rule:nonzero;"/>
        <path d="M886.85,156.83L877.29,156.83C876.741,156.83 876.29,156.379 876.29,155.83C876.29,155.281 876.741,154.83 877.29,154.83L886.85,154.83C887.399,154.83 887.85,155.281 887.85,155.83C887.85,156.379 887.399,156.83 886.85,156.83Z" style="fill:rgb(184,184,184);fill-rule:nonzero;"/>
        <path d="M893.9,156.83L891.38,156.83C890.831,156.83 890.38,156.379 890.38,155.83C890.38,155.281 890.831,154.83 891.38,154.83L893.9,154.83C894.449,154.83 894.9,155.281 894.9,155.83C894.9,156.379 894.449,156.83 893.9,156.83Z" style="fill-rule:nonzero;"/>
        <path d="M904.47,156.83L898.47,156.83C897.921,156.83 897.47,156.379 897.47,155.83C897.47,155.281 897.921,154.83 898.47,154.83L904.47,154.83C905.019,154.83 905.47,155.281 905.47,155.83C905.47,156.379 905.019,156.83 904.47,156.83Z" style="fill-rule:nonzero;"/>
        <path d="M864.2,163.37L862.69,163.37C862.141,163.37 861.69,162.919 861.69,162.37C861.69,161.821 862.141,161.37 862.69,161.37L864.2,161.37C864.749,161.37 865.2,161.821 865.2,162.37C865.2,162.919 864.749,163.37 864.2,163.37Z" style="fill:rgb(184,184,184);fill-rule:nonzero;"/>
        <path d="M877.29,163.37L868.23,163.37C867.681,163.37 867.23,162.919 867.23,162.37C867.23,161.821 867.681,161.37 868.23,161.37L877.29,161.37C877.839,161.37 878.29,161.821 878.29,162.37C878.29,162.919 877.839,163.37 877.29,163.37Z" style="fill-rule:nonzero;"/>
        <path d="M897.42,163.37L884.84,163.37C884.291,163.37 883.84,162.919 883.84,162.37C883.84,161.821 884.291,161.37 884.84,161.37L897.42,161.37C897.969,161.37 898.42,161.821 898.42,162.37C898.42,162.919 897.969,163.37 897.42,163.37Z" style="fill-rule:nonzero;"/>
        <path d="M878.3,169.91L862.69,169.91C862.141,169.91 861.69,169.459 861.69,168.91C861.69,168.361 862.141,167.91 862.69,167.91L878.3,167.91C878.849,167.91 879.3,168.361 879.3,168.91C879.3,169.459 878.849,169.91 878.3,169.91Z" style="fill-rule:nonzero;"/>
        <path d="M878.3,176.46L862.69,176.46C862.141,176.46 861.69,176.009 861.69,175.46C861.69,174.911 862.141,174.46 862.69,174.46L878.3,174.46C878.849,174.46 879.3,174.911 879.3,175.46C879.3,176.009 878.849,176.46 878.3,176.46Z" style="fill-rule:nonzero;"/>
        <path d="M868.23,183L862.69,183C862.141,183 861.69,182.549 861.69,182C861.69,181.451 862.141,181 862.69,181L868.23,181C868.779,181 869.23,181.451 869.23,182C869.23,182.549 868.779,183 868.23,183Z" style="fill-rule:nonzero;"/>
        <path d="M878.3,183L873.77,183C873.221,183 872.77,182.549 872.77,182C872.77,181.451 873.221,181 873.77,181L878.3,181C878.849,181 879.3,181.451 879.3,182C879.3,182.549 878.849,183 878.3,183Z" style="fill-rule:nonzero;"/>
        <path d="M927.12,117.57L922.59,117.57C922.041,117.57 921.59,117.119 921.59,116.57C921.59,116.021 922.041,115.57 922.59,115.57L927.12,115.57C927.669,115.57 928.12,116.021 928.12,116.57C928.12,117.119 927.669,117.57 927.12,117.57Z" style="fill-rule:nonzero;"/>
        <path d="M936.18,117.57L931.65,117.57C931.101,117.57 930.65,117.119 930.65,116.57C930.65,116.021 931.101,115.57 931.65,115.57L936.18,115.57C936.729,115.57 937.18,116.021 937.18,116.57C937.18,117.119 936.729,117.57 936.18,117.57Z" style="fill-rule:nonzero;"/>
        <path d="M954.8,117.57L941.72,117.57C941.171,117.57 940.72,117.119 940.72,116.57C940.72,116.021 941.171,115.57 941.72,115.57L954.8,115.57C955.349,115.57 955.8,116.021 955.8,116.57C955.8,117.119 955.349,117.57 954.8,117.57Z" style="fill-rule:nonzero;"/>
        <path d="M961.85,117.57L959.33,117.57C958.781,117.57 958.33,117.119 958.33,116.57C958.33,116.021 958.781,115.57 959.33,115.57L961.85,115.57C962.399,115.57 962.85,116.021 962.85,116.57C962.85,117.119 962.399,117.57 961.85,117.57Z" style="fill-rule:nonzero;"/>
        <path d="M940.21,124.11L922.59,124.11C922.041,124.11 921.59,123.659 921.59,123.11C921.59,122.561 922.041,122.11 922.59,122.11L940.21,122.11C940.759,122.11 941.21,122.561 941.21,123.11C941.21,123.659 940.759,124.11 940.21,124.11Z" style="fill-rule:nonzero;"/>
        <path d="M966.88,124.11L954.8,124.11C954.251,124.11 953.8,123.659 953.8,123.11C953.8,122.561 954.251,122.11 954.8,122.11L966.88,122.11C967.429,122.11 967.88,122.561 967.88,123.11C967.88,123.659 967.429,124.11 966.88,124.11Z" style="fill-rule:nonzero;"/>
        <path d="M949.27,124.11L949.07,124.11C949.004,124.099 948.94,124.079 948.88,124.05C948.819,124.03 948.761,124 948.71,123.96L948.55,123.83C948.363,123.641 948.258,123.386 948.26,123.12C948.264,122.855 948.367,122.602 948.55,122.41C948.596,122.361 948.65,122.321 948.71,122.29C948.763,122.251 948.82,122.218 948.88,122.19L949.07,122.19C949.399,122.121 949.742,122.223 949.98,122.46C950.167,122.649 950.272,122.904 950.27,123.17C950.272,123.436 950.167,123.691 949.98,123.88C949.782,124.045 949.527,124.128 949.27,124.11Z" style="fill-rule:nonzero;"/>
        <path d="M944.74,124.11C944.191,124.11 943.74,123.659 943.74,123.11C943.741,122.843 943.849,122.587 944.04,122.4C944.276,122.166 944.614,122.065 944.94,122.13L945.13,122.13C945.19,122.158 945.247,122.191 945.3,122.23C945.36,122.261 945.414,122.301 945.46,122.35C945.647,122.539 945.752,122.794 945.75,123.06C945.752,123.326 945.647,123.581 945.46,123.77L945.3,123.9C945.249,123.94 945.191,123.97 945.13,123.99C945.07,124.02 945.006,124.041 944.94,124.05L944.74,124.11Z" style="fill-rule:nonzero;"/>
        <path d="M937.69,130.65L922.59,130.65C922.041,130.65 921.59,130.199 921.59,129.65C921.59,129.101 922.041,128.65 922.59,128.65L937.69,128.65C938.239,128.65 938.69,129.101 938.69,129.65C938.69,130.199 938.239,130.65 937.69,130.65Z" style="fill-rule:nonzero;"/>
        <path d="M954.3,130.65L953.3,130.65C952.751,130.65 952.3,130.199 952.3,129.65C952.3,129.101 952.751,128.65 953.3,128.65L954.3,128.65C954.849,128.65 955.3,129.101 955.3,129.65C955.3,130.199 954.849,130.65 954.3,130.65Z" style="fill-rule:nonzero;"/>
        <path d="M968.9,130.65L958.83,130.65C958.281,130.65 957.83,130.199 957.83,129.65C957.83,129.101 958.281,128.65 958.83,128.65L968.9,128.65C969.449,128.65 969.9,129.101 969.9,129.65C969.9,130.199 969.449,130.65 968.9,130.65Z" style="fill-rule:nonzero;"/>
        <path d="M937.69,137.2L922.59,137.2C922.041,137.2 921.59,136.749 921.59,136.2C921.59,135.651 922.041,135.2 922.59,135.2L937.69,135.2C938.239,135.2 938.69,135.651 938.69,136.2C938.69,136.749 938.239,137.2 937.69,137.2Z" style="fill:rgb(184,184,184);fill-rule:nonzero;"/>
        <path d="M932.15,143.74L922.59,143.74C922.041,143.74 921.59,143.289 921.59,142.74C921.59,142.191 922.041,141.74 922.59,141.74L932.15,141.74C932.699,141.74 933.15,142.191 933.15,142.74C933.15,143.289 932.699,143.74 932.15,143.74Z" style="fill-rule:nonzero;"/>
        <path d="M938.19,143.74L937.19,143.74C936.641,143.74 936.19,143.289 936.19,142.74C936.19,142.191 936.641,141.74 937.19,141.74L938.19,141.74C938.739,141.74 939.19,142.191 939.19,142.74C939.19,143.289 938.739,143.74 938.19,143.74Z" style="fill-rule:nonzero;"/>
        <path d="M958.33,143.74L954.33,143.74C953.781,143.74 953.33,143.289 953.33,142.74C953.33,142.191 953.781,141.74 954.33,141.74L958.33,141.74C958.879,141.74 959.33,142.191 959.33,142.74C959.33,143.289 958.879,143.74 958.33,143.74Z" style="fill-rule:nonzero;"/>
        <path d="M960.34,137.2L954.34,137.2C953.791,137.2 953.34,136.749 953.34,136.2C953.34,135.651 953.791,135.2 954.34,135.2L960.34,135.2C960.889,135.2 961.34,135.651 961.34,136.2C961.34,136.749 960.889,137.2 960.34,137.2Z" style="fill-rule:nonzero;"/>
        <path d="M969.9,137.2L964.37,137.2C963.821,137.2 963.37,136.749 963.37,136.2C963.37,135.651 963.821,135.2 964.37,135.2L969.9,135.2C970.449,135.2 970.9,135.651 970.9,136.2C970.9,136.749 970.449,137.2 969.9,137.2Z" style="fill:rgb(184,184,184);fill-rule:nonzero;"/>
        <path d="M970.41,143.74L962.86,143.74C962.311,143.74 961.86,143.289 961.86,142.74C961.86,142.191 962.311,141.74 962.86,141.74L970.41,141.74C970.959,141.74 971.41,142.191 971.41,142.74C971.41,143.289 970.959,143.74 970.41,143.74Z" style="fill-rule:nonzero;"/>
        <path d="M938.19,150.28L928.13,150.28C927.581,150.28 927.13,149.829 927.13,149.28C927.13,148.731 927.581,148.28 928.13,148.28L938.19,148.28C938.739,148.28 939.19,148.731 939.19,149.28C939.19,149.829 938.739,150.28 938.19,150.28Z" style="fill-rule:nonzero;"/>
        <path d="M924.1,150.28L922.59,150.28C922.041,150.28 921.59,149.829 921.59,149.28C921.59,148.731 922.041,148.28 922.59,148.28L924.1,148.28C924.649,148.28 925.1,148.731 925.1,149.28C925.1,149.829 924.649,150.28 924.1,150.28Z" style="fill:rgb(184,184,184);fill-rule:nonzero;"/>
        <path d="M959.33,150.28L951.28,150.28C950.731,150.28 950.28,149.829 950.28,149.28C950.28,148.731 950.731,148.28 951.28,148.28L959.33,148.28C959.879,148.28 960.33,148.731 960.33,149.28C960.33,149.829 959.879,150.28 959.33,150.28Z" style="fill-rule:nonzero;"/>
        <path d="M968.9,150.28L964.9,150.28C964.351,150.28 963.9,149.829 963.9,149.28C963.9,148.731 964.351,148.28 964.9,148.28L968.9,148.28C969.449,148.28 969.9,148.731 969.9,149.28C969.9,149.829 969.449,150.28 968.9,150.28Z" style="fill-rule:nonzero;"/>
        <path d="M932.15,156.83L922.59,156.83C922.041,156.83 921.59,156.379 921.59,155.83C921.59,155.281 922.041,154.83 922.59,154.83L932.15,154.83C932.699,154.83 933.15,155.281 933.15,155.83C933.15,156.379 932.699,156.83 932.15,156.83Z" style="fill-rule:nonzero;"/>
        <path d="M946.75,156.83L937.19,156.83C936.641,156.83 936.19,156.379 936.19,155.83C936.19,155.281 936.641,154.83 937.19,154.83L946.75,154.83C947.299,154.83 947.75,155.281 947.75,155.83C947.75,156.379 947.299,156.83 946.75,156.83Z" style="fill-rule:nonzero;"/>
        <path d="M953.8,156.83L951.28,156.83C950.731,156.83 950.28,156.379 950.28,155.83C950.28,155.281 950.731,154.83 951.28,154.83L953.8,154.83C954.349,154.83 954.8,155.281 954.8,155.83C954.8,156.379 954.349,156.83 953.8,156.83Z" style="fill-rule:nonzero;"/>
        <path d="M964.37,156.83L958.37,156.83C957.821,156.83 957.37,156.379 957.37,155.83C957.37,155.281 957.821,154.83 958.37,154.83L964.37,154.83C964.919,154.83 965.37,155.281 965.37,155.83C965.37,156.379 964.919,156.83 964.37,156.83Z" style="fill-rule:nonzero;"/>
        <path d="M924.1,163.37L922.59,163.37C922.041,163.37 921.59,162.919 921.59,162.37C921.59,161.821 922.041,161.37 922.59,161.37L924.1,161.37C924.649,161.37 925.1,161.821 925.1,162.37C925.1,162.919 924.649,163.37 924.1,163.37Z" style="fill-rule:nonzero;"/>
        <path d="M937.19,163.37L928.13,163.37C927.581,163.37 927.13,162.919 927.13,162.37C927.13,161.821 927.581,161.37 928.13,161.37L937.19,161.37C937.739,161.37 938.19,161.821 938.19,162.37C938.19,162.919 937.739,163.37 937.19,163.37Z" style="fill:rgb(184,184,184);fill-rule:nonzero;"/>
        <path d="M957.32,163.37L944.74,163.37C944.191,163.37 943.74,162.919 943.74,162.37C943.74,161.821 944.191,161.37 944.74,161.37L957.32,161.37C957.869,161.37 958.32,161.821 958.32,162.37C958.32,162.919 957.869,163.37 957.32,163.37Z" style="fill-rule:nonzero;"/>
        <path d="M938.19,169.91L933.66,169.91C933.111,169.91 932.66,169.459 932.66,168.91C932.66,168.361 933.111,167.91 933.66,167.91L938.19,167.91C938.739,167.91 939.19,168.361 939.19,168.91C939.19,169.459 938.739,169.91 938.19,169.91Z" style="fill:rgb(184,184,184);fill-rule:nonzero;"/>
        <path d="M928.63,169.91L922.09,169.91C921.541,169.91 921.09,169.459 921.09,168.91C921.09,168.361 921.541,167.91 922.09,167.91L928.63,167.91C929.179,167.91 929.63,168.361 929.63,168.91C929.63,169.459 929.179,169.91 928.63,169.91Z" style="fill-rule:nonzero;"/>
        <path d="M938.19,176.46L922.59,176.46C922.041,176.46 921.59,176.009 921.59,175.46C921.59,174.911 922.041,174.46 922.59,174.46L938.19,174.46C938.739,174.46 939.19,174.911 939.19,175.46C939.19,176.009 938.739,176.46 938.19,176.46Z" style="fill-rule:nonzero;"/>
        <path d="M922.59,183C922.323,182.999 922.067,182.891 921.88,182.7C921.829,182.657 921.785,182.606 921.75,182.55C921.714,182.497 921.684,182.44 921.66,182.38C921.631,182.32 921.611,182.256 921.6,182.19C921.595,182.123 921.595,182.057 921.6,181.99C921.596,181.923 921.596,181.857 921.6,181.79C921.611,181.727 921.631,181.667 921.66,181.61C921.686,181.548 921.716,181.488 921.75,181.43L921.88,181.28C922.068,181.091 922.323,180.984 922.59,180.984C922.857,180.984 923.112,181.091 923.3,181.28L923.43,181.43L923.52,181.61L923.58,181.79C923.584,181.857 923.584,181.923 923.58,181.99C923.579,182.257 923.471,182.513 923.28,182.7L923.13,182.83C923.075,182.864 923.019,182.894 922.96,182.92C922.896,182.949 922.829,182.969 922.76,182.98L922.59,183Z" style="fill-rule:nonzero;"/>
        <path d="M938.19,183L928.13,183C927.581,183 927.13,182.549 927.13,182C927.13,181.451 927.581,181 928.13,181L938.19,181C938.739,181 939.19,181.451 939.19,182C939.19,182.549 938.739,183 938.19,183Z" style="fill-rule:nonzero;"/>
        <path d="M811.35,124.11L808.84,124.11C808.291,124.11 807.84,123.659 807.84,123.11C807.84,122.561 808.291,122.11 808.84,122.11L811.35,122.11C811.899,122.11 812.35,122.561 812.35,123.11C812.35,123.659 811.899,124.11 811.35,124.11Z" style="fill-rule:nonzero;"/>
        <path d="M821.92,124.11L815.38,124.11C814.831,124.11 814.38,123.659 814.38,123.11C814.38,122.561 814.831,122.11 815.38,122.11L821.92,122.11C822.469,122.11 822.92,122.561 822.92,123.11C822.92,123.659 822.469,124.11 821.92,124.11Z" style="fill-rule:nonzero;"/>
        <path d="M819.91,130.65L816.39,130.65C815.841,130.65 815.39,130.199 815.39,129.65C815.39,129.101 815.841,128.65 816.39,128.65L819.91,128.65C820.459,128.65 820.91,129.101 820.91,129.65C820.91,130.199 820.459,130.65 819.91,130.65Z" style="fill:white;fill-rule:nonzero;"/>
        <path d="M844.07,130.65L840.55,130.65C840.001,130.65 839.55,130.199 839.55,129.65C839.55,129.101 840.001,128.65 840.55,128.65L844.07,128.65C844.619,128.65 845.07,129.101 845.07,129.65C845.07,130.199 844.619,130.65 844.07,130.65Z" style="fill-rule:nonzero;"/>
        <path d="M832,130.65L830.49,130.65C829.941,130.65 829.49,130.199 829.49,129.65C829.49,129.101 829.941,128.65 830.49,128.65L832,128.65C832.549,128.65 833,129.101 833,129.65C833,130.199 832.549,130.65 832,130.65Z" style="fill-rule:nonzero;"/>
        <path d="M840.55,137.2L832.49,137.2C831.941,137.2 831.49,136.749 831.49,136.2C831.49,135.651 831.941,135.2 832.49,135.2L840.55,135.2C841.099,135.2 841.55,135.651 841.55,136.2C841.55,136.749 841.099,137.2 840.55,137.2Z" style="fill-rule:nonzero;"/>
        <path d="M846.08,137.2L844.57,137.2C844.021,137.2 843.57,136.749 843.57,136.2C843.57,135.651 844.021,135.2 844.57,135.2L846.08,135.2C846.629,135.2 847.08,135.651 847.08,136.2C847.08,136.749 846.629,137.2 846.08,137.2Z" style="fill-rule:nonzero;"/>
        <path d="M807.33,137.2L805.33,137.2C804.781,137.2 804.33,136.749 804.33,136.2C804.33,135.651 804.781,135.2 805.33,135.2L807.33,135.2C807.879,135.2 808.33,135.651 808.33,136.2C808.33,136.749 807.879,137.2 807.33,137.2Z" style="fill-rule:nonzero;"/>
        <path d="M818.9,137.2L813.37,137.2C812.821,137.2 812.37,136.749 812.37,136.2C812.37,135.651 812.821,135.2 813.37,135.2L818.9,135.2C819.449,135.2 819.9,135.651 819.9,136.2C819.9,136.749 819.449,137.2 818.9,137.2Z" style="fill-rule:nonzero;"/>
        <path d="M804.81,143.74L802.81,143.74C802.261,143.74 801.81,143.289 801.81,142.74C801.81,142.191 802.261,141.74 802.81,141.74L804.81,141.74C805.359,141.74 805.81,142.191 805.81,142.74C805.81,143.289 805.359,143.74 804.81,143.74Z" style="fill-rule:nonzero;"/>
        <path d="M832,143.74L809.84,143.74C809.291,143.74 808.84,143.289 808.84,142.74C808.84,142.191 809.291,141.74 809.84,141.74L832,141.74C832.549,141.74 833,142.191 833,142.74C833,143.289 832.549,143.74 832,143.74Z" style="fill-rule:nonzero;"/>
        <path d="M832,150.28L826.46,150.28C825.911,150.28 825.46,149.829 825.46,149.28C825.46,148.731 825.911,148.28 826.46,148.28L832,148.28C832.549,148.28 833,148.731 833,149.28C833,149.829 832.549,150.28 832,150.28Z" style="fill:rgb(184,184,184);fill-rule:nonzero;"/>
        <path d="M850.61,150.28L837.53,150.28C836.981,150.28 836.53,149.829 836.53,149.28C836.53,148.731 836.981,148.28 837.53,148.28L850.61,148.28C851.159,148.28 851.61,148.731 851.61,149.28C851.61,149.829 851.159,150.28 850.61,150.28Z" style="fill-rule:nonzero;"/>
        <path d="M850.61,156.83L837.53,156.83C836.981,156.83 836.53,156.379 836.53,155.83C836.53,155.281 836.981,154.83 837.53,154.83L850.61,154.83C851.159,154.83 851.61,155.281 851.61,155.83C851.61,156.379 851.159,156.83 850.61,156.83Z" style="fill-rule:nonzero;"/>
        <path d="M845.08,163.37L837.53,163.37C836.981,163.37 836.53,162.919 836.53,162.37C836.53,161.821 836.981,161.37 837.53,161.37L845.08,161.37C845.629,161.37 846.08,161.821 846.08,162.37C846.08,162.919 845.629,163.37 845.08,163.37Z" style="fill-rule:nonzero;"/>
        <path d="M854.64,163.37L851.12,163.37C850.571,163.37 850.12,162.919 850.12,162.37C850.12,161.821 850.571,161.37 851.12,161.37L854.64,161.37C855.189,161.37 855.64,161.821 855.64,162.37C855.64,162.919 855.189,163.37 854.64,163.37Z" style="fill-rule:nonzero;"/>
        <path d="M852.12,156.83L836.52,156.83C835.971,156.83 835.52,156.379 835.52,155.83C835.52,155.281 835.971,154.83 836.52,154.83L852.12,154.83C852.669,154.83 853.12,155.281 853.12,155.83C853.12,156.379 852.669,156.83 852.12,156.83Z" style="fill-rule:nonzero;"/>
        <path d="M809.34,150.28L800.78,150.28C800.231,150.28 799.78,149.829 799.78,149.28C799.78,148.731 800.231,148.28 800.78,148.28L809.34,148.28C809.889,148.28 810.34,148.731 810.34,149.28C810.34,149.829 809.889,150.28 809.34,150.28Z" style="fill-rule:nonzero;"/>
        <path d="M809.34,156.83L800.78,156.83C800.231,156.83 799.78,156.379 799.78,155.83C799.78,155.281 800.231,154.83 800.78,154.83L809.34,154.83C809.889,154.83 810.34,155.281 810.34,155.83C810.34,156.379 809.889,156.83 809.34,156.83Z" style="fill-rule:nonzero;"/>
        <path d="M812.86,163.37L797.26,163.37C796.711,163.37 796.26,162.919 796.26,162.37C796.26,161.821 796.711,161.37 797.26,161.37L812.86,161.37C813.409,161.37 813.86,161.821 813.86,162.37C813.86,162.919 813.409,163.37 812.86,163.37Z" style="fill-rule:nonzero;"/>
        <path d="M813.87,156.83L798.77,156.83C798.221,156.83 797.77,156.379 797.77,155.83C797.77,155.281 798.221,154.83 798.77,154.83L813.87,154.83C814.419,154.83 814.87,155.281 814.87,155.83C814.87,156.379 814.419,156.83 813.87,156.83Z" style="fill-rule:nonzero;"/>
        <path d="M814.37,150.28L813.37,150.28C812.821,150.28 812.37,149.829 812.37,149.28C812.37,148.731 812.821,148.28 813.37,148.28L814.37,148.28C814.919,148.28 815.37,148.731 815.37,149.28C815.37,149.829 814.919,150.28 814.37,150.28Z" style="fill-rule:nonzero;"/>
        <path d="M821.42,150.28L819.42,150.28C818.871,150.28 818.42,149.829 818.42,149.28C818.42,148.731 818.871,148.28 819.42,148.28L821.42,148.28C821.969,148.28 822.42,148.731 822.42,149.28C822.42,149.829 821.969,150.28 821.42,150.28Z" style="fill-rule:nonzero;"/>
        <path d="M848.1,143.74L837,143.74C836.451,143.74 836,143.289 836,142.74C836,142.191 836.451,141.74 837,141.74L848.1,141.74C848.649,141.74 849.1,142.191 849.1,142.74C849.1,143.289 848.649,143.74 848.1,143.74Z" style="fill-rule:nonzero;"/>
        <path d="M812.36,130.65L806.82,130.65C806.271,130.65 805.82,130.199 805.82,129.65C805.82,129.101 806.271,128.65 806.82,128.65L812.36,128.65C812.909,128.65 813.36,129.101 813.36,129.65C813.36,130.199 812.909,130.65 812.36,130.65Z" style="fill-rule:nonzero;"/>
        <path d="M842.56,124.11L829.47,124.11C828.921,124.11 828.47,123.659 828.47,123.11C828.47,122.561 828.921,122.11 829.47,122.11L842.56,122.11C843.109,122.11 843.56,122.561 843.56,123.11C843.56,123.659 843.109,124.11 842.56,124.11Z" style="fill-rule:nonzero;"/>
        <path d="M832,117.57L828.48,117.57C827.931,117.57 827.48,117.119 827.48,116.57C827.48,116.021 827.931,115.57 828.48,115.57L832,115.57C832.549,115.57 833,116.021 833,116.57C833,117.119 832.549,117.57 832,117.57Z" style="fill:rgb(184,184,184);fill-rule:nonzero;"/>
        <path d="M840.55,117.57L836,117.57C835.451,117.57 835,117.119 835,116.57C835,116.021 835.451,115.57 836,115.57L840.53,115.57C841.079,115.57 841.53,116.021 841.53,116.57C841.53,117.119 841.079,117.57 840.53,117.57L840.55,117.57Z" style="fill:rgb(184,184,184);fill-rule:nonzero;"/>
        <path d="M779.62,163.38L776.51,163.38C776.409,163.413 776.304,163.43 776.198,163.43C775.649,163.43 775.198,162.979 775.198,162.43C775.198,161.881 775.649,161.43 776.198,161.43C776.304,161.43 776.409,161.447 776.51,161.48L779.62,161.48C780.029,161.615 780.308,161.999 780.308,162.43C780.308,162.861 780.029,163.245 779.62,163.38Z" style="fill-rule:nonzero;"/>
        <path d="M779.62,156.82L767,156.82C766.968,156.823 766.935,156.825 766.903,156.825C766.382,156.825 765.953,156.396 765.953,155.875C765.953,155.354 766.382,154.925 766.903,154.925C766.935,154.925 766.968,154.927 767,154.93L779.59,154.93C780.072,154.98 780.443,155.39 780.443,155.875C780.443,156.36 780.072,156.77 779.59,156.82L779.62,156.82Z" style="fill-rule:nonzero;"/>
        <path d="M777.14,150.27L755.65,150.27C755.241,150.135 754.962,149.751 754.962,149.32C754.962,148.889 755.241,148.505 755.65,148.37L777.14,148.37C777.661,148.37 778.09,148.799 778.09,149.32C778.09,149.841 777.661,150.27 777.14,150.27Z" style="fill-rule:nonzero;"/>
        <path d="M765.08,143.71L761,143.71C760.968,143.713 760.935,143.715 760.903,143.715C760.382,143.715 759.953,143.286 759.953,142.765C759.953,142.244 760.382,141.815 760.903,141.815C760.935,141.815 760.968,141.817 761,141.82L765.05,141.82C765.082,141.817 765.115,141.815 765.147,141.815C765.668,141.815 766.097,142.244 766.097,142.765C766.097,143.286 765.668,143.715 765.147,143.715C765.115,143.715 765.082,143.713 765.05,143.71L765.08,143.71Z" style="fill-rule:nonzero;"/>
        <path d="M754.33,137.16L743.64,137.16C743.231,137.025 742.952,136.641 742.952,136.21C742.952,135.779 743.231,135.395 743.64,135.26L754.33,135.26C754.851,135.26 755.28,135.689 755.28,136.21C755.28,136.731 754.851,137.16 754.33,137.16Z" style="fill-rule:nonzero;"/>
        <path d="M766.4,130.6L744.28,130.6C744.248,130.603 744.215,130.605 744.183,130.605C743.662,130.605 743.233,130.176 743.233,129.655C743.233,129.134 743.662,128.705 744.183,128.705C744.215,128.705 744.248,128.707 744.28,128.71L766.4,128.71C766.432,128.707 766.465,128.705 766.497,128.705C767.018,128.705 767.447,129.134 767.447,129.655C767.447,130.176 767.018,130.605 766.497,130.605C766.465,130.605 766.432,130.603 766.4,130.6Z" style="fill-rule:nonzero;"/>
        <path d="M768.3,124.05L756.3,124.05C755.891,123.915 755.612,123.531 755.612,123.1C755.612,122.669 755.891,122.285 756.3,122.15L768.3,122.15C768.709,122.285 768.988,122.669 768.988,123.1C768.988,123.531 768.709,123.915 768.3,124.05Z" style="fill-rule:nonzero;"/>
        <path d="M779.62,117.5L767.62,117.5C767.211,117.365 766.932,116.981 766.932,116.55C766.932,116.119 767.211,115.735 767.62,115.6L779.62,115.6C780.029,115.735 780.308,116.119 780.308,116.55C780.308,116.981 780.029,117.365 779.62,117.5Z" style="fill:rgb(184,184,184);fill-rule:nonzero;"/>
        <path d="M779.62,110.94L776.51,110.94C776.478,110.943 776.445,110.945 776.413,110.945C775.892,110.945 775.463,110.516 775.463,109.995C775.463,109.474 775.892,109.045 776.413,109.045C776.445,109.045 776.478,109.047 776.51,109.05L779.62,109.05C780.102,109.1 780.473,109.51 780.473,109.995C780.473,110.48 780.102,110.89 779.62,110.94Z" style="fill-rule:nonzero;"/>
        <path d="M755,143.71L744,143.71C743.968,143.713 743.935,143.715 743.903,143.715C743.382,143.715 742.953,143.286 742.953,142.765C742.953,142.244 743.382,141.815 743.903,141.815C743.935,141.815 743.968,141.817 744,141.82L755,141.82C755.032,141.817 755.065,141.815 755.097,141.815C755.618,141.815 756.047,142.244 756.047,142.765C756.047,143.286 755.618,143.715 755.097,143.715C755.065,143.715 755.032,143.713 755,143.71Z" style="fill-rule:nonzero;"/>
        <path d="M778.41,124.05L772.09,124.05C771.569,124.05 771.14,123.621 771.14,123.1C771.14,122.579 771.569,122.15 772.09,122.15L778.41,122.15C778.931,122.15 779.36,122.579 779.36,123.1C779.36,123.621 778.931,124.05 778.41,124.05Z" style="fill-rule:nonzero;"/>
        <path d="M938.9,211.44L935.79,211.44C935.308,211.39 934.937,210.98 934.937,210.495C934.937,210.01 935.308,209.6 935.79,209.55L938.9,209.55C938.932,209.547 938.965,209.545 938.997,209.545C939.518,209.545 939.947,209.974 939.947,210.495C939.947,211.016 939.518,211.445 938.997,211.445C938.965,211.445 938.932,211.443 938.9,211.44Z" style="fill-rule:nonzero;"/>
        <path d="M948.38,218L935.79,218C935.381,217.865 935.102,217.481 935.102,217.05C935.102,216.619 935.381,216.235 935.79,216.1L948.38,216.1C948.789,216.235 949.068,216.619 949.068,217.05C949.068,217.481 948.789,217.865 948.38,218Z" style="fill-rule:nonzero;"/>
        <path d="M959.76,224.55L938.27,224.55C938.169,224.583 938.064,224.6 937.958,224.6C937.409,224.6 936.958,224.149 936.958,223.6C936.958,223.051 937.409,222.6 937.958,222.6C938.064,222.6 938.169,222.617 938.27,222.65L959.76,222.65C960.169,222.785 960.448,223.169 960.448,223.6C960.448,224.031 960.169,224.415 959.76,224.55Z" style="fill-rule:nonzero;"/>
        <path d="M954.38,231.1L950.38,231.1C950.348,231.103 950.315,231.105 950.283,231.105C949.762,231.105 949.333,230.676 949.333,230.155C949.333,229.634 949.762,229.205 950.283,229.205C950.315,229.205 950.348,229.207 950.38,229.21L954.38,229.21C954.412,229.207 954.445,229.205 954.477,229.205C954.998,229.205 955.427,229.634 955.427,230.155C955.427,230.676 954.998,231.105 954.477,231.105C954.445,231.105 954.412,231.103 954.38,231.1Z" style="fill-rule:nonzero;"/>
        <path d="M971.77,237.66L961.08,237.66C960.559,237.66 960.13,237.231 960.13,236.71C960.13,236.189 960.559,235.76 961.08,235.76L971.77,235.76C972.179,235.895 972.458,236.279 972.458,236.71C972.458,237.141 972.179,237.525 971.77,237.66Z" style="fill-rule:nonzero;"/>
        <path d="M971.13,244.21L949,244.21C948.968,244.213 948.935,244.215 948.903,244.215C948.382,244.215 947.953,243.786 947.953,243.265C947.953,242.744 948.382,242.315 948.903,242.315C948.935,242.315 948.968,242.317 949,242.32L971.12,242.32C971.152,242.317 971.185,242.315 971.217,242.315C971.738,242.315 972.167,242.744 972.167,243.265C972.167,243.786 971.738,244.215 971.217,244.215C971.185,244.215 971.152,244.213 971.12,244.21L971.13,244.21Z" style="fill-rule:nonzero;"/>
        <path d="M959.12,250.77L948.44,250.77C947.919,250.77 947.49,250.341 947.49,249.82C947.49,249.299 947.919,248.87 948.44,248.87L959.12,248.87C959.221,248.837 959.326,248.82 959.432,248.82C959.981,248.82 960.432,249.271 960.432,249.82C960.432,250.369 959.981,250.82 959.432,250.82C959.326,250.82 959.221,250.803 959.12,250.77Z" style="fill:rgb(184,184,184);fill-rule:nonzero;"/>
        <path d="M947.75,257.32L935.75,257.32C935.341,257.185 935.062,256.801 935.062,256.37C935.062,255.939 935.341,255.555 935.75,255.42L947.75,255.42C948.159,255.555 948.438,255.939 948.438,256.37C948.438,256.801 948.159,257.185 947.75,257.32Z" style="fill-rule:nonzero;"/>
        <path d="M938.9,263.87L935.79,263.87C935.308,263.82 934.937,263.41 934.937,262.925C934.937,262.44 935.308,262.03 935.79,261.98L938.9,261.98C938.932,261.977 938.965,261.975 938.997,261.975C939.518,261.975 939.947,262.404 939.947,262.925C939.947,263.446 939.518,263.875 938.997,263.875C938.965,263.875 938.932,263.873 938.9,263.87Z" style="fill-rule:nonzero;"/>
        <path d="M971.45,231.1L959.12,231.1C958.638,231.05 958.267,230.64 958.267,230.155C958.267,229.67 958.638,229.26 959.12,229.21L971.45,229.21C971.482,229.207 971.515,229.205 971.547,229.205C972.068,229.205 972.497,229.634 972.497,230.155C972.497,230.676 972.068,231.105 971.547,231.105C971.515,231.105 971.482,231.103 971.45,231.1Z" style="fill-rule:nonzero;"/>
        <path d="M943.32,250.77L937,250.77C936.479,250.77 936.05,250.341 936.05,249.82C936.05,249.299 936.479,248.87 937,248.87L943.32,248.87C943.841,248.87 944.27,249.299 944.27,249.82C944.27,250.341 943.841,250.77 943.32,250.77Z" style="fill-rule:nonzero;"/>
    </g>
</svg>